<svg height="512" width="512" xmlns="http://www.w3.org/2000/svg"><g fill="#202020"><path d="M359.668 90.354c1.595-1.673 3.24-2.879 2.725-2.166 3.062-3.595 3.437-3.363 3.352-4.311 1.884-2.39 4.514-4.318 2.292-1.678l5.845-6.476-3.764 3.603c.287-.716 1.791-2.155 3.306-3.624l.566-.551.141-.137.069-.068.307-.278.3-.243.293-.24.144-.119c.041-.037.181-.122.268-.179a14.92 14.92 0 011.191-.683c.397-.209.688-.269 1.016-.396.316-.099.608-.229.891-.278.562-.118 1.037-.219 1.383-.327l-.681.052a6.853 6.853 0 00-1.762.342c-.362.116-.718.201-1.203.47-.229.119-.463.248-.696.387l-.349.215c-.114.073-.25.161-.277.191l-.656.542-.042.035-.298.268-.076.078-.154.156-.311.314-3.313 3.355.191-.476c-1.365 1.672-4.379 4.557-5.467 5.525.092-.232-.126-.244 1.037-1.433-8.084 8.018-1.419 2.918-7.957 9.742.406-.425.931-.937 1.689-1.612zM351.78 96.144l-2.271 3.346-4.851 4.573c.133.239-3.149 3.821-.662 1.661.425-.483 1.268-1.437 2.01-2.146-.124.927-6.065 6.466-4.274 5.487 3.62-3.833 4.28-4.316 6.248-6.936 3.453-3.379 6.033-5.774 7.774-7.223.953-1.075.85-1.463 2.089-2.801l-.859.89-.742-.464c-.947 1.202-2.023 2.157-3.203 3.362l4.811-6.22c-2.344 1.214-7.431 6.964-9.83 8.895 3.192-2.175-1.888 2.393 3.76-2.424zM357.843 92.107l.134-.137-.134.137zM320.299 368.013c-1.183-1.162-1.671-1.365-1.912-1.463l13.214 13.192c-.255-.572-3.861-4.571-1.226-2.125-.958-1.309-4.56-4.61-5.274-4.897l1.198.716c-3.352-2.732-4.82-5.419-2.654-3.618l-.26-.253-9.617-7.234c3.024 3.163 2.793 1.972 6.531 5.682zM371.45 94.048c-1.655 1.766-1.809 2.034-1.556 1.898a35.051 35.051 0 001.556-1.898zM311.519 360.641l-3.012-2.267c1.157.957 2.22 1.752 3.012 2.267zM335.473 373.255c.025-.015.071-.004.028-.1l-1.376-.994a.392.392 0 01.03.03c.484.39.918.739 1.318 1.064zM250.212 302.135l-.893-.84c.318.312.614.587.893.84zM373.37 406.89l-6.229-5.512c.952.613-1.931-2.168-.496-1.129-.474-.42-2.639-2.45-2.154-1.791l1.209 1.187c-3.59-2.601-1.905-.536-7.414-5.292 2.893 3.48 4.558 4.608 6.471 6.071l1.604 1.468 5.572 4.189 1.437.809zM292.463 178.653l-.025.103c.045-.073.043-.097.025-.103zM292.339 179.17l.099-.415c-.237.395-1.369 1.679-.099.415zM312.809 361.291c-.172.012-.623-.215-1.29-.649l2.249 1.689-.959-1.04zM318.369 364.69l5.016 4.875 2.079 1.566c-1.989-1.795-4.269-3.942-7.095-6.441z"/><path d="M257.732 310.235c-10.319-10.167 3.098 1.935-1.468-2.912-2.912-2.775-4.192-3.503-6.052-5.188 8.36 7.888-2.012-.191 6.329 7.855-1.666-.665-6.454-5.364-9.099-8.279-2.666-3.629 3.103 2.396 4.288 2.638-3.367-3.21-2.875-2.543-4.539-3.669-5.05-5.274-11.273-10.09-13.688-13.841-3.843-3.631-3.828-3.154-6.23-5.05-.943.088 5.287 5.829 6.266 7.62-.243-.331-.716-.978-.481-.888l3.122 3.339c-2.887-3.246.941-.089 2.621 1.51 1.203 1.182 3.596 3.529 3.127 3.346l-1.917-1.694c2.161 2.486 5.503 4.75 7.678 7.483.013.244-.97-.63-1.183-.698 3.102 2.397 5.733 5.069 10.052 8.891l-2.87-1.849c3.821 2.69 11.032 10.223 15.843 15.631-.479-.653-1.44-1.735-.729-1.221 3.123 2.878 5.039 5.496 3.38 4.375 3.355 2.508 10.813 11.527 15.358 14.972l20.968 15.77a47.483 47.483 0 01-2.323-2.042c-1.221-2.119-2.175-2.964 1.174-.462-3.109-2.635-2.373-1.177-6.707-5.474 1.919 1.467 2.861 1.38-1.22-2.808-10.784-9.888-18.91-15.462-29.216-24.463-.01-.702-7.686-8.184-11.288-11.948 1.777 1.034 4.616 3.662 7.528 6.424l-7.068-7.169-1.656-.199z"/><path d="M282.894 333.073a19.935 19.935 0 00-.736-.864c.118.175.334.435.736.864zM267.309 318.477c.049.023.047 0 .073-.002l-.927-.873.854.875zM311.168 358.088c.712.515 1.193.941 1.906 1.455l-1.398-1.218c-.481-.389-.734-.548-.508-.237zM312.627 360.763l-.471-.186c.253.275.43.469.652.713.149-.005.137-.146-.181-.527zM221.717 267.966l-1.057-.906c.598.585.883.809 1.057.906z"/><path d="M246.908 298.238c3.596 3.528.942-.091 5.984 4.946l-1.448-1.51c3.837 3.395 10.09 9.851 14.404 14.129-.69-.278 2.355 2.855 1.533 2.672 3.012 2.862 5.991 5.699 7.834 6.883 1.711 1.928 4.765 4.401 6.941 6.851-.783-1.17 3.947 2.64-1.918-2.754.48.429.239.1.715.521-3.356-3.896-5.268-4.894-8.397-8.011-1.678-2.058 3.362 2.747 1.676.908-4.078-3.724-12.011-12.471-12.47-11.495-2.89-2.788-3.123-3.338-3.839-4.315-5.255-3.727-16.337-16.994-17.273-15.976 1.678 1.601 4.329 4.293 6.943 6.489l-.685.662zM305.136 352.156a8263.2 8263.2 0 01-.684-.703l.684.703zM347.257 399.94l-2.129-.851c-8.635-8.33-11.521-11.576-18.964-18.968-.479-.654.476.19.961.618-5.288-5.141-12.956-13.076-17.045-16.578-1.654-1.664-5.807-6.222-3.971-4.762-.863-.751-1.841-1.619-2.749-2.568-.017-.475 2.144 2.013 2.385 1.878-.721-.751-.963-1.083-1.204-1.18 1.436 1.041-.507-2.063 5.255 3.727 1.699 2.772-4.068-3.944-3.34-2.031 1.911 1.919 1.918 1.468 2.154 1.56 2.428 2.454 2.215 2.539 1.95 2.544 1.119.752 3.934 4.078 5.504 5.091 4.794 4.702-.702.187 2.405 3.28l2.387 1.188 5.042 5.269c7.674 7.253-.031-2.103 8.838 6.089-1.434-.809 1.462 3.139 5.308 7.234-2.397-2.354-7.18-6.354-10.068-9.599 3.854 4.793-6.006-5.894-4.3-3.113 2.391 1.883 5.987 5.41 8.628 8.326l-.966-.855c2.891 3.019 5.755 4.628 9.592 8.944 2.046 2.007 1.497 1.797 1 1.58 1.805 1.624 3.454 3.039 3.327 3.177zm-4.539-4.288l-2.651-2.771c.544.743 1.557 1.751 2.651 2.771zM313.949 134.131l.872-.775c-.207.153-.532.452-.872.775zM317.557 381.937l-1.551-1.59a53.707 53.707 0 001.551 1.59zM280.341 348.681l-2.434-2.154a31.28 31.28 0 002.434 2.154zM295.188 152.81l-.08.072-.33.394.41-.466zM211.073 276.607a22.863 22.863 0 00-1.146-1.409c.005.123.44.644 1.146 1.409zM280.789 349.077l-.128-.149-.32-.246.448.395zM331.329 399.207l1.065.945a16.035 16.035 0 00-1.065-.945zM330.816 395.294c.377.347.741.674 1.036.917l-1.036-.917zM387.133 423.069l-2.199-2.027c1.048 1.029 1.702 1.616 2.199 2.027zM336.017 401.28c.15.096.301.191.409.246-.311-.273-.484-.377-.409-.246zM329.166 122.487l-.126.13.017.123.109-.253zM333.433 116.474l1.808-1.907a37.474 37.474 0 00-1.808 1.907zM210.144 238.251c.646-.473 2.063-1.683 1.549-.971.946-1.196.572-1.428-1.549.971zM322.615 136.541c.256-.417.612-.898.972-1.38-.695.87-1.309 1.628-.972 1.38zM323.586 135.161l1.011-1.281a37.2 37.2 0 00-1.011 1.281zM203.573 255.862c-.093.113-.12.295-.114.544.137-.083.108-.273.114-.544z"/><path d="M336.836 113.163c.191-.476 7.955-8.861 1.091-2.143-.183-.707 4.15-4.563 5.852-6.483-1.42 1.211.368-.939-.189-.699-.845.952-1.784 2.147-3.301 3.6-.886.479 1.229-1.911 3.063-3.594-2.401 1.932 2.397-3.102-.85-.215-6.398 6.713-10.87 11.508-14.831 16.768 3.63-3.844 7.678-8.157 10.922-11.043l-.903 1.673c-3.803 3.126-5.688 5.517-9.132 8.889l7.858-7.45c3.905-3.265 1.58-.793-1.176 2.103.7-.691 1.352-1.297 1.596-1.406zM335.055 121.696l.14-.117c.098-.126.229-.274.283-.362l-.423.479zM379.74 431.243l-.804-.512c.614.484.829.608.804.512zM328.626 124.398l.006-.005c-.048.055-.06.068-.006.005zM375.006 426.186c.033.014.067.025.12.055-.07-.048-.082-.036-.12-.055zM362.339 430.107c.012.049.005.074.058.163.371.328.219.141-.058-.163zM374.957 426.21c.012-.012.013-.034.049-.023-.025-.001-.066-.016-.049.023zM294.004 348.08s.185.318.517.777c.189.117.078-.077-.517-.777zM309.136 364.351l.244.329-.244-.329zM204.698 240.232a63.283 63.283 0 00-1.831 1.873 43.852 43.852 0 001.831-1.873zM375.126 426.241c.205.123.48.314.917.647-.479-.369-.746-.55-.917-.647zM268.121 326.084l.525.44-.268-.306-.257-.134zM260.211 317.607c.323.236.497.318.693.437-3.084-2.765-8.283-8.312-9.329-8.538 1.002.982 5.907 6.367 4.791 5.73 2.141 1.937 4.867 5.236 6.032 6.267-3.123-3.57-.017-.707 2.381 1.415 1.936 2.174-.716-.058.978 1.788l4.8 4.709-4.087-4.195 1.651.864-.459-.385c-7.19-6.824-.019-1.171-7.451-8.092zM260.905 318.044c.463.413.878.769 1.219 1.025-.668-.654-.965-.871-1.219-1.025zM232.927 288.768l-1.303-1.178 1.303 1.178zM328.913 374.711c.007.238 3.851 4.561 4.08 4.185l-3.563-3.754-.517-.431zM242.539 210.104c-.463.445-.923.898-1.375 1.359l-.219.313c.324-.234 1.168-1.19 1.594-1.672zM254.963 314.117c.794.702 1.175.987 1.404 1.119-.509-.461-.996-.869-1.404-1.119zM243.515 210.567c.666-.493 1.651-1.215 1.887-1.221 1.188-1.182 1.861-2.173 3.011-3.436-1.317 1.405-2.922 2.95-4.898 4.657zM248.506 205.806l-.092.104.092-.104z"/><path d="M326.613 372.153l-1.148-1.021.646.483-2.717-2.899a47.702 47.702 0 01-1.204-1.108c.192.171.365.279.485.334l-.864-.936c-2.55-1.923-8.344-7.26-10.134-8.681-2.258-1.99-4.934-4.515-6.54-6.169 1.505 1.518 3.574 3.461 3.145 2.686-2.888-3.249-3.86-5.26-9.603-10.109l3.113 3.099-7.656-6.312c-2.168-2.726 3.821 3.15 5.033 3.878-5.764-5.101-9.396-10.503-12.496-12.439-.009-.699-.028-1.871-3.626-5.4 2.176 2.964-2.39-1.884-.703.646-1.429-1.034-3.852-4.1-4.314-4.047l.476.19c-5.538-6.632-8.388-7.768-11.272-10.09-7.428-7.146-10.551-10.716-16.551-16.601-.002-.465-.984-2.719-3.393-5.079-1.421-.796-6.944-6.028-7.895-6.177 4.095 4.43 3.824 3.151 6.469 5.609 1.704 2.545-.223.608 2.427 3.761-2.178-2.505-10.799-10.361-12.969-13.319l.96.85c-3.854-4.333-3.644-6.106-11.064-12.326l-3.5-3.009c.197.117.262.088.381.136-2.642-2.684-3.486-3.776-4.449-4.888a28.54 28.54 0 00-.778-.866 38.73 38.73 0 00-1.1-1.121c-.862-.848-2.012-1.921-3.817-3.545.557.501.313.17.87.672a48.137 48.137 0 00-2.23-2.354c1.419-1.432 2.693-2.86 3.94-4.277l1.833-2.083 1.536-1.715c1.881-1.213-.038.696-.753 1.895 6.026-5.768 11.816-12.705 15.07-16.774l3.997-3.605c-2.116 2.393-4.519 5.5-3.629 5.014 2.023-2.157 1.461-1.911 4.481-4.803-.291.718-1.332 2.158-2.452 3.817 6.472-5.756.608-2.125 5.543-5.748 1.925-1.917 2.729-3.345 2.681-3.813l3.818-3.143c.058-.715 4.335-5.031 7.101-7.896.202-.485-2.618 1.916-3.558 3.11-.048-.468 2.826-3.585 4.757-5.507 1.395-.016 12.513-12.713 11.048-9.623 8.43-8.878 20.517-21.104 25.939-27.104 2.074-1.693 5.923-5.521 3.945-2.897 6.969-6.963 9.854-11.264 16.956-17.989.659-.486-3.119 3.132-2.644 3.116 4.243-4.795 8.515-7.93 15.343-15.126-1.168 1.192-1.369 1.678-1.461 1.914-.237.008 2.635-3.11 4.338-5.035 1.079-.96-1.274 1.44-.615.956 13.88-13.21 23.262-24.467 36.765-37.908-3.856 3.838-4.854 5.749-4.707 5.978l3.777-3.761c1.224-1.681 4.055-4.51 6.25-7.047.376-.205 1.62-1.264.554.019 3.954-3.491 6.652-6.607 9.533-9.961l2.217-2.57.283-.328.169-.263c.116-.171.25-.33.307-.536.184-.369.278-.784.313-1.201.03-.42-.011-.855-.142-1.268-.079-.193-.126-.45-.224-.55a1.382 1.382 0 01-.099-.217l-.021-.061-.085-.101-.17-.203-.343-.411-.043-.052-.006-.006c.238.264.063.071.115.129l-.009-.006-.018-.013-.07-.052-.139-.107-.269-.23a4.772 4.772 0 01-.319-.162c-.226-.156-.389-.158-.554-.246-.039-.053-.256-.074-.457-.095l-.596-.071.674.008c.092.005.26-.006.32.014a2.11 2.11 0 00.451.074l.331.132c.254.063.479.222.731.387l.098.06.051.03.024.015.007.004.003.002c-.041-.046.098.106-.092-.104l.014.015.229.236a936 936 0 00.466.484c.276.391.668 1.11.757 1.874a4.447 4.447 0 01-.413 2.247c-.211.328-.369.617-.647.947l-.767.906-1.582 1.87 3.054-2.413-4.438 5.277c3.14-2.688 5.129-5.627 5.741-6.004-.066.245-.257.515-.476.806l-.337.446-.328.367c-.424.479-.766.899-.695 1.016.734-.683 1.259-1.118 1.754-1.784.254-.285.399-.595.531-.883.134-.287.266-.546.31-.828l.169-.806.02-.848c.027-.295-.05-.605-.096-.947-.029-.345-.146-.704-.287-1.104.488 1.006.671 2.366.273 3.745-.196.681-.51 1.386-1 1.99-.112.149-.241.332-.349.455l-.321.363-.658.736a309.876 309.876 0 01-5.769 6.217l-10.958 11.426c-.861.971.614-.954.704-1.188-2.352 2.399-3.997 3.605-6.865 6.717-1.559 2.155 1.636-1.198 3.141-2.64.056.462-.701 1.188-2.304 2.868-.701.011-9.132 8.887-11.668 10.581-8.661 8.878 2.296-.509-6.415 7.902l-2.952 2.162c-4.664 5.275-10.821 11.974-16.529 17.514l1.172-1.198c.621-.958-.788.242-1.452.733-4.419 4.081-7.758 8.379-10.729 10.559-4.427 5.267-12.197 13.659-17.523 19.418-2.016.974 6.788-7.672 8.769-10.303l-5.043 5.047c3.112-3.125 4.146-4.555 5.719-6.721-4.519 4.325-5.517 6.234-9.576 10.558.185-.468-.462.005-2.399 1.934l-.203.895c-.063.007-.304.195-.923.77l-7.246 7.669c1.73-1.435 2.107-1.21 4.038-3.133-.89.486.704-1.188 2.638-3.11-1.463 1.915 2.071-1.689 2.217-1.462-3.875 3.856-8.577 8.651-11.017 11.28l-1.142.505c-3.765 3.603-7.477 7.67-10.067 10.076l.618-.957c-4.517 4.322-8.663 8.879-12.898 12.492-3.578 4.306-8.237 9.572-11.079 13.174-1.312 2.135-12.083 11.051-15.948 16.074-.344.255 2.743-3.362 4.104-5.034-3.02 2.893-4.859 5.754-6.218 6.249 6.78-6.489-.702.011 2.164-3.101-3.098 3.114-6.295 6.467-7.664 8.146 5.023-5.031-1.188 2.383 3.713-2.895-1.704 2.05-3.782 4.376-6.014 6.741l-2.165 2.278a40.256 40.256 0 01-1.651 1.583l.289.325c-.374 0-.263.283.545 1.246.019.02 1.1.559 1.081.54.499.548-.095.114-.621-.239-.516-.344-.963-.607.2.651.423.308.623.43 1.474 1.228a100.9 100.9 0 012.239 2.15l4.701 4.738c3.092 3.125 5.914 5.882 7.339 6.45 3.133 3.81-6.948-6.263-2.13-.617-3.353-2.733-7.197-7.286-8.628-7.862 3.105 2.861.727 1.45 2.647 3.379l3.591 3.063-.72-.752c5.987 5.179 14.639 14.219 21.837 21.28 6.47 5.608 11.25 9.144 18.446 16.435-2.391-1.887 5.773 6.259.75 2.162 3.129 3.574 6.702 6.62 6.955 6.499-2.886-3.014-.978-1.097-3.37-3.673 1.903 1.45 5.759 5.326 7.198 7.062-.719-.753-.482-.43-.716-.521 3.369 3.673 1.912 1.463 4.552 3.913.49 1.124 5.533 5.703 7.693 8.19l3.821 2.918c-2.148-1.555 3.121 3.338 3.379 4.143 2.625 2.207 5.02 3.865 8.619 7.625-1.675-1.365 3.134 3.581 2.896 3.946 6.013 6.59 11.257 9.613 16.794 16.014-.256-.115-1.659-1.122.01.698 1.458 1.29 3.828 3.731 5.331 5.169l-.055-.038.085.068c.736.703 1.227 1.119 1.317 1.063 2.812 2.221 4.41 3.217 9.612 7.919-.019-.709-4.333-4.756-6.254-6.455l-1.905-1.224c-.975-2.016-4.557-4.376-5.52-5.689 3.581 2.36 11.986 11.065 17.493 15.822-2.648-3.609-9.38-10.492-15.378-16.373l2.409 2.822-3.114-3.101 2.641 3.375c-2.879-3.009-5.518-5.459-8.158-8.141 3.122 3.108 3.86 4.798 2.173 2.96-3.133-3.81-3.839-3.396-6.471-6.07 1.445 1.508 3.36 3.436 1.925 2.395-4.817-5.646-6.501-6.79-10.816-11.99.015 1.165-6.002-5.888-7.186-6.129l2.159 2.256-5.03-4.336c-3.853-4.79 4.304 3.349-1.94-3.559-6.01-6.126-6.457-5.364-11.272-10.09 1.912 1.23 5.988 4.722 9.827 8.58l-2.166-2.495c1.431 1.036 6.714 6.402 9.35 9.079-4.781-4 1.935 2.175 3.626 4.479.697.037-2.174-2.73 1.42.334-3.125-3.112-3.608-3.541-7.451-7.632 8.425 8.726 8.855 6.566 16.063 14.328-3.6-3.301.727 1.679.982 2.254 1.663 1.584 5.034 4.799 6.472 6.07l-.75-1.703c4.566 4.155 5.072 6.679 10.596 11.221.939.368-4.33-4.523-3.369-3.674 7.185 6.587 8.897 9.835 14.653 16.308.488.202.719-.171 3.109 1.716-.957-.386.479 1.343-2.137-.854 1.924 2.165 4.555 4.376 6.47 6.068-4.088-4.423 2.152 1.33 3.107 1.943 2.156 2.253-.957-.387-2.396-1.66 1.693 1.847 3.375 4.37 4.808 4.947-.231.371-5.738-4.154-9.098-7.357l2.163 2.26c-1.677-1.369-1.919-1.698-4.067-3.94 1.916 2.382 1.446 2.428.731 2.142-.238-.325.228.085.002-.227-1.691-1.845-3.13-3.118-2.88-2.549-1.994-1.185 2.199 2.705 3.195 4.104l2.778 2.617 10.483 7.886c4.075 3.772 5.528 5.848 8.28 8.991l1.156.462c3.378 3.45 6.49 6.781 3.862 5.033-.007-.239-.485-.662-1.21-1.42-.146-.052-.35-.188-.593-.377-.092-.051-.151-.07-.23-.108l6.348 5.951c-6.712-5.704-.94.32-2.595-.103a250050.002 250050.002 0 004.423 4.149l.547.513.713.805.196.225c.02.017.081.104.139.19l.16.242c.204.315.371.603.501.841.263.481.382.76.368.745a12.251 12.251 0 00-1.083-2.068 14.947 14.947 0 00-.099-.141l-.173-.248a64.83 64.83 0 01-.249-.376l-.022-.036-.003-.004-.288-.319-.006-.009-.012-.016-.043-.057-.062-.092c-.063-.101-.047-.122.027-.082.037.02.088.055.152.102l.05.038.004.003.299.33.006.006.013.012.025.024.11.109c.16.164.342.348.566.6.418.577.847 1.284 1.182 1.997.224.604.437 1.23.576 1.816.099.595.162 1.153.202 1.609a6.169 6.169 0 00-.185.877c-.081.445-.131 1.034-.361 1.701-.101.335-.217.695-.349 1.071-.166.362-.359.74-.569 1.13a5.952 5.952 0 01-.758 1.139c-.148.184-.3.369-.453.558l-.238.278-.03.034-.352.318-.037.032-.074.064-.608.525c-.418.308-1.045.691-1.601.976l-.434.214-.367.13-.744.239c-.495.169-1.001.247-1.507.297-1.007.152-1.997.034-2.897-.106-.89-.226-1.712-.462-2.357-.848l.435.106c-.597-.332-1.277-.66-1.863-1.193-.3-.248-.624-.529-.905-.793l-.474-.495-2.096-2.123a184.716 184.716 0 00-4.346-4.178c0 .232-3.823-2.459-5.729-3.683 4.228 4.486 1.503 2.04 1.638 2.604-.432-.47-1.238-1.285-1.377-1.335-.722-.525.715.978.724 1.215 2.396 2.235 4.797 4.532 6.896 6.447a80.835 80.835 0 002.882 2.528l.76.616c.447.356.89.674 1.313.95.865.525 1.724.843 2.421 1.058-.974-.528-1.895-.996-2.643-1.629-.371-.288-.802-.64-1.091-.889l-.511-.427c-.688-.565-1.406-1.144-2.129-2.012a32.772 32.772 0 012.027 1.671c.174.157.351.315.53.478l.322.292.613.512c.812.706 1.8 1.235 2.849 1.707a10.98 10.98 0 007.158.306c.311-.093.622-.193.932-.303a14.174 14.174 0 002.229-1.246c.11-.074.142-.101.165-.12l.093-.075.187-.15.377-.305.047-.039.024-.02.443-.401.022-.024.175-.195.346-.399c.457-.544.903-1.103 1.231-1.766l.336-.505a6.51 6.51 0 00.637-1.18c.198-.449.378-.914.504-1.266.117-.353.16-.598.16-.598l.049-.521c.017-.333.079-.808.042-1.374a17.57 17.57 0 00-.243-1.925c-.193-.702-.382-1.381-.714-2.152a14.288 14.288 0 00-1.077-1.865l-.198-.282c-.078-.11-.067-.083-.105-.131l-.583-.656-.434-.479-.034-.031-.066-.062-.122-.112a24.028 24.028 0 01-.198-.184c-.11-.102-.174-.159-.174-.159.222.183.404.322.563.436l.059.041.028.02.002.001.408.451.004.003.006.006.014.011.1.081.184.142.338.239.173.124c.077.069.257.301.39.474.291.383.615.855.959 1.479l.255.493.178.446c.12.315.243.668.364 1.063.409 1.553.847 3.979-.371 7.15.204-.364.687-1.35.877-2.804.086-.731.178-1.567.063-2.479a15.264 15.264 0 00-.191-1.412c-.121-.478-.265-.97-.432-1.465-.197-.83-1.262-2.635-1.808-3.296l-.473-.545-.57-.637-.132-.125-.264-.252a49.099 49.099 0 01-1.989-2l-1.658-.887c.705.275-4.578-5.091-.502-1.601a14660.583 14660.583 0 004.7 4.245l.136.122.066.06.033.029.008.008.498.55.015.016.443.489.196.217c.005-.006.145.191.21.282l.234.339c.298.444.537.851.723 1.189.373.687.533 1.081.516 1.053.021.031-.136-.422-.453-1.1a15.19 15.19 0 00-.589-1.13l-.544-.896-.428-.726-.523-.581-.007-.009-.012-.017-.024-.033-.044-.06c-.027-.037-.052-.07-.071-.098-.039-.054-.063-.084-.063-.084l.228.22.027.027.55.607.057.066.126.15c.091.107.192.229.304.36l.085.102.043.052c.011.011.027.03.083.109a15.803 15.803 0 011.533 2.642c.234.57.384 1.073.552 1.645l.222.847c.048.287.087.577.122.869.37 2.341-.158 4.706-.773 6.361-.354.812-.712 1.47-.968 1.919-.248.458-.441.68-.441.68l.104-.16c.068-.1.154-.251.246-.44.189-.374.429-.882.641-1.395a8.09 8.09 0 00.469-1.44l.153-.669c-.12.45-.253.885-.395 1.302-.151.412-.351.796-.536 1.173-.19.375-.387.733-.587 1.074-.208.334-.448.632-.675.928-.23.293-.462.571-.693.835l-.173.195-.086.095-.022.023-.011.012-.575.521-.02.017-.153.128c-.203.166-.394.322-.572.47-1.013.752-2.552 1.575-3.335 1.788-.857.261-1.606.481-2.27.542-1.336.146-2.273.109-3.004-.035-.731-.132-1.26-.233-1.766-.445-.509-.194-1.013-.4-1.679-.686-.635-.342-1.486-.746-2.515-1.509a24.81 24.81 0 01-.805-.657l-.435-.38-.224-.203-.105-.104-.883-.861a122.307 122.307 0 00-2.647-2.434c-3.1-2.168-5.981-4.949-11.025-10.22 3.836 3.627.712.054 2.387 1.188-3.612-4.001-5.281-4.901-7.438-6.694-.724-1.216-1.212-2.106 2.152 1.329.941-.09-4.562-4.384-4.341-5.225-11.28-11.248-10.741-7.311-23.245-21.142l.708.28c-8.628-8.095-13.196-13.175-21.107-20.749l-5.552-6.641c1.447 1.279 5.52 4.538 4.072 2.564 2.414 3.517 5.754 6.471 8.653 9.961.469.184-.729-1.221-1.207-1.876 1.924 1.933 2.644 3.147 5.286 5.599-.01-.236-2.65-3.151-.49-1.124l3.125 3.803c4.797 4.474 3.095 1.471 8.383 7.071-1.314-.71-3.819-2.34-6-4.375 2.422 2.554-3.499-3.134-1.41-.683 4.032 3.136 5.407 5.221 10.453 9.706-.622-.497-.857-.558-2.058-1.703l6.725 7.104c-1.448-1.973 6 5.424 5.746 4.391-7.207-7.53-5.277-5.129-13.453-13.747 2.465 2.289 5.927 4.958 7.728 6.029.058.088.167.222.418.487 1.669.897.464-.514 1.163-1.163-4.313-3.354-6.48-6.311-11.277-10.556-1.219-.481 2.152 3.094 4.495 5.245l-4.228-3.738.954.614-9.985-10.232c1.935 1.896 2.8 2.332 3.96 3.171-1.29-1.319-2.484-2.709-3.751-4.189-.063.641-.494.707-1.76-.571-6.42-6.588-9.72-10.521-11.718-13.323l-.782-.732c.729 1.451-5.268-3.97-7.652-5.617.473-.272-3.128-3.575-4.812-5.641-1.427-.569-.687 1.353 1.246 3.985 4.79 4.007 2.859 2.069 5.493 3.592l7.425 6.685-1.918-1.235c3.37 3.672 7.203 6.604 6.501 6.789-2.157-1.564-5.049-4.816-7.192-6.365l2.166 2.492c-4.546-3.673-1.686-2.527-6.966-7.198 1.453 2.208-.478-.424-2.862-2.302 1.447 1.975 8.868 8.653 6.73 7.8-2.867-2.307-7.952-9.458-12.014-12.242l.24.095c-4.967-5.134-7.108-6.542-9.23-8.201-1.94-2.357-5.2-5.031-7.553-7.338l.244-.13-3.364-3.208c1.904 1.225 3.842 3.86 6.714 6.634l-.004-.698c2.842 3.666 5.639 5.21 8.461 7.435-3.974-3.372-10.287-10.456-11.827-10.641l-1.922-2.622-1.214-.961c-1.43-1.956.711-.64 4.072 2.564.482.658.725.986.479.886 1.679 1.369 3.348 2.499 6.954 6.266l-2.15-1.784c4.565 4.615 8.873 8.655 10.785 9.886-6.482-6.772-12.969-13.319-19.207-19.526-2.619-1.052-5.237-2.789-6.901-2.996-4.31-4.04-10.079-9.609-13.438-13.502l.477.189a65.657 65.657 0 00-4.808-4.712c-1.678-2.061 1.665.895.466-.512l-6.225-5.736c.699.039 5.732 5.07 8.146 7.437-.479-.424-1.444-1.279-1.196-.942 2.644 2.915 8.384 7.532 9.122 9.225 1.438 1.271-3.103-2.399 1.457 2.211 2.891 3.25 4.318 3.821 4.782 3.999.237-.137-4.563-5.074-2.647-3.61-2.413-2.366-3.606-3.077-6.482-6.313 2.391 2.346 5.987 5.184 6.958 6.735 5.032 4.335 5.237 2.786 3.077.529.251.801-8.881-8.204-3.099-1.705-3.112-2.405-8.154-7.441-11.983-10.83l.235.094-4.568-4.392c.729.532 2.167 1.804 2.397 1.662l-6.706-5.704c3.829 3.156-1.932-2.398-3.373-4.137-.95-.379-3.583-2.593-1.421-.104 2.407 2.821 1.677 1.366 4.076 3.722l-3.817-2.915-.245-.333-2.396-1.656c-4.559-4.612 2.861 1.145-3.375-4.369l.262 1.267c-6.728-6.876-14.897-16.177-19.936-20.751 1.612 1.04 2.656 1.164 1.106-.932 1.986 2.159 6.168 6.306 9.188 9.231.483.66-4.308-3.119-7.429-6.457.741 2.388 8.62 7.625 8.165 8.839 7.936 8.52 6.941 5.334 13.435 12.808.469-.276 2.167 1.803 2.863 1.842-1.459-2.676-9.356-9.315-13.675-14.06.471.416 1.419 1.253 1.664 1.357-3.13-3.349-4.552-4.604-6.953-6.729l.241.329c-4.318-3.59-2.168-2.725-4.332-5.216-.957-.847-4.085-4.19-3.838-3.396l-3.86-4.568-.213.619c-2.401-2.353-2.647-3.147-5.055-5.049l-.472.272 5.774 6.033c-3.114-2.87-1.191-.478-4.557-3.688 2.04 1.633 1.442.932.332-.266-.555-.6-1.238-1.322-1.783-1.939a14.816 14.816 0 01-.681-.818 3.938 3.938 0 01-.206-.301 1.029 1.029 0 01-.157-.275c-.569-.512-1.139-1.024-1.674-1.56l-1.116-1.179-.563-.597c-.188-.2-.308-.43-.466-.645l.412.554.509.507-.439-.606-.313-.584c-.197-.372-.418-.689-.529-1.04l-.402-.958c-.113-.313-.186-.633-.285-.95-.226-.631-.286-1.323-.377-2.147.013-.413.037-.863.081-1.36.07-.493.221-1.022.359-1.617l-.425 1.491c-.079.498-.147.987-.207 1.471-.007.483.014.961.034 1.437.04.473.152.93.227 1.396.223.91.523 1.819 1.031 2.658.201.444.547.841.88 1.258l1.042 1.28 1.936 1.873c.436.4.86.772 1.346 1.188l-1.125-.964c-.144-.117-.599-.546-.971-.892l-1.245-1.166c-.873-1.002-1.917-2.05-2.554-3.274-.601-1.248-1.057-2.593-1.177-3.897-.304-2.626.547-4.777.932-5.698.542-1.362 1.664-2.387 2.568-3.423.887-.965 2.006-2.196 2.408-2.497 1.116-1.003 2.237-1.961 3.449-3.13-2.21 2.359-1.528 2.241-1.471 2.645.028.202-.1.534-.824 1.371l-2.071 2.297-1.834 1.981c-.298.393-.536.842-.833 1.299-.209.501-.466 1.021-.645 1.603-.022-.37.582-1.852 1.017-2.312-.876.761-1.91 3.005-1.65 5.632.085 1.308.587 2.623 1.203 3.795.663 1.145 1.681 2.078 2.479 2.938l1.82 1.61c-.246-.492.343-.066.426-.116.051-.015.109-.015-.105-.287-.228-.285-.679-.792-1.478-1.653l-1.091-1.369c.324.472.197.455-.253.061-.111-.1-.249-.22-.392-.368l-.411-.54c-.144-.205-.325-.418-.471-.676-.128-.269-.266-.555-.412-.858-.511-1.231-.902-2.9-.61-4.639.286-1.737 1.046-3.437 2.418-4.666l-.048.647c-.033.31-.006.623.006.629-.034-.016.393-.46 1.026-1.125l2.28-2.394 2.472-2.403-.428.484c2.211-1.456 5.128-5.275 8.708-8.41 2.214-2.633 11.679-11.765 7.065-8.378 3.38-2.646 5.558-5.758 8.767-9.125l-4.338 3.859c4.426-5.265 3.301-3.598 6.512-8.143.552-.232 1.548-.964.929-.008 6.541-6.479 16.003-15.61 19.342-19.909 4.614-4.563 6.025-4.592 12.192-11.302 1.273-1.438-1.604.509 2.826-3.585.33-.243-3.67 4.539 1.031-.255 2.93-3.832 8.189-7.691 12.196-12.481 2.485-2.159 6.452-6.25 5.971-5.053-3.76 3.596-8.891 8.876-9.513 9.84.293-.723-2.824 2.408-.279-.469-5.83 5.29-3.388 3.83-8.56 8.633-.201.487 2.959-2.169 3.9-3.366.511.464-9.6 10.07-4.581 6.221 5.372-5.288 5.938-7.887 11.07-11.993-1.555 2.148-4.702 4.793-6.542 7.657l3.991-3.6 2.403-3.107-.093.236c7.15-6.258 5.699-6.704 11.453-12.946-3.813 3.137-.041-1.649-2.862.758 3.949-4.073 6.959-6.954 7.474-6.493-7.106 7.901.09.941-6.361 8.365 1.313-.964-.938 2.365 3.25-1.715 4.31-5.006-1.8.987 2.685-3.819.318-.231.647-.472.557-.238 1.883-2.39 2.584-2.402 4.89-5.268l-.515.711c3.483-2.892 3.151-3.823 6.219-6.245-1.46.736 1.546-2.14 3.021-4.067-2.919 2.645-4.943 3.631-10.403 9.148-.377.949.183.707-1.933 3.1l3.532-3.603c-.723.817-1.235 1.477-1.883 2.24l-3.576 3.278c4.141-4.549 1.843-2.862 3.391-5.006 4.101-3.851 3.202-3.359 5.796-5.766.168.671 8.383-6.949 13.231-11.257l-2.141 2.107c-3.061 3.59 2.638-1.938 2.876-1.946l2.214-2.633c-.428.485-.96 1.214.133.24 3.203-3.358 2.596-3.584 5.792-6.938.478-.014-1.941 3.105.218 1.19.903-.5 3.677-2.2 7.823-6.756.22-.397 1.299-1.575 2.568-2.92-.169.194-.389.431-.454.53l3.143-2.639c-2.068 2.857-5.166 4.795-7.246 7.666l.165.585c-1.925 1.928-4.379 4.706-5.388 6.103 3.001-2.873 3.521-3.59 6.727-6.952.697-.223-1.439 2.266-1.747 2.625l.275-.704c-4.227 3.606-5.496 6.215-10.441 11.021-.751.721-.329.244-.236.009-3.584 4.311-7.954 7.685-11.312 12l1.054-1.448-11.938 13.708.105.187c.654-.479-1.267 1.432-2.354 2.4l.003-.007-6.564 7.496a29.749 29.749 0 002.598-2.225c.629-.972 5.46-5.521 4.428-5.267 2.401-1.932 5.556-5.76 7.294-7.204-3.149 2.649 1.652-2.386 1.945-3.109 1.221-.729 4.277-4.315 4.229-3.605.658-.486-1.644 1.204-2.679 2.635-2.729 3.345 5.831-5.289 2.341-1.213 4.579-5.043 11.021-11.283 15.679-16.55l-2.913 2.643c2.255-2.158 7.402-7.453 7.952-7.684-1.601 1.678-3.521 3.59-5.552 5.753.271.475 5.037-5.042 5.501-5.045l5.474-6.708-2.688 2.647c1.454-1.907 7.305-7.211 11.491-11.293-1.861 2.882-6.224 6.25-10.368 10.805-2.966 3.353 2.443-1.459-.425 1.654.895-.657 2.832-2.622 3.666-3.712l1.271-1.087c-2.203 3.132-8.287 9.009-11.869 13.389.3-.399.552-.756.608-.921-3.245 2.885-6.351 6.006-9.216 9.117 1.727-1.434 2.253-2.159 3.103-3.117.227.002-2.545 2.873-3.485 4.067 2.916-2.645.792-.245 2.628-1.927-1.7 1.921-3.199 3.355-5.453 5.513-1.32.969.704-1.188.241-1.184-2.134 2.41-3.723 2.899-6.782 6.49 4.52-4.327-.666 1.665-2.035 3.343l.758-.725c-1.133 1.672-2.313 2.873-3.528 3.596 1.7-1.921 3.528-3.596 2.739-3.355-1.184 1.208-2.364 2.412-3.637 3.848l1.034-1.429-5.886 6c-.699 1.183-1.93 3.096-2.396 4.275-1.645 1.207-3.447 3.375-4.716 4.811l.528-.73c-2.828 2.415-8.488 8.42-8.766 9.126-2.063 1.682 11.877-14.6-1.163-1.163-5.03 5.035-2.452 3.817-5.089 6.925 0 0 .093-.231-.237.009-2.252 2.153-2.214 2.633-3.914 4.554 1.424-1.217 3.343-3.126 3.86-3.841-.378.948-4.612 4.562-6.075 6.474 1.751-2.63-4.425 4.089-2.95 2.164-4.663 4.097-8.999 9.128-10.975 11.753-3.525 2.42-5.139 5.285-10.218 9.854.758-.725 2.021-2.153 3.117-3.131 2.399-3.1-5.182 4.815-1.27.262-.85.96.122.25.995-.733 1.584-1.663 2.959-3.346 2.392-3.097l-4.241 3.622 1.288-1.457-6.395 5.537c-.092.233.555-.239.886-.482-7.108 6.731-14.781 14.882-20.901 20.887-.075 1.063-3.7 4.9-7.843 9.16l-3.157 3.237-1.563 1.609-.59.618-.335.369c-.437.477-.852.934-.937 1.472-.108.521.027 1.01.265 1.329-.348-.33-.657-.674-.937-.863-.287-.19-.574-.219-.776.115-.028-.445-.042-1.189.409-1.925.219-.367.533-.729.869-1.129.174-.201.345-.39.554-.604.297-.304.606-.606.926-.906.555-.237 3.794-3.117 2.006-.966 6.734-6.959-1.36.493.293-1.895l-1.878 1.949-1.673 1.782c-.71.846-1.483 1.517-1.821 2.386a3.092 3.092 0 00.162 2.538c.377.756 1.083 1.21 1.647 1.664l.736.573 1.156 1.005 2.293 2.04.004.238 3.837 3.395c-2.889-3.021-2.183-3.434 1.429.57l-.491-.436c1.937 2.407 6.733 6.649 10.089 10.079l2.625 1.977c3.361 3.436 2.905 4.185 3.648 5.65 5.284 5.369 8.854 7.95 12.931 11.439 1.448 1.974 9.363 10.014 4.817 6.106 5.036 4.572 5.476 2.193 12.935 11.215l-2.392-1.885c7.931 7.825 19.671 18.556 23.034 22.453-3.817-1.995 8.913 10.768 9.42 13.062-.187-.594 2.842 2.298 3.382 2.62.544.753 1.522 1.935 2.853 2.896-2.893-3.252 3.087 1.232-3.146-4.281 3.585 2.36 7.893 5.711 14.374 12.253l-.471.275-5.039-5.266c.246.795-2.386-1.877-3.6-2.837 9.375 9.793-2.127-.382 7.72 9.367 1.188.704.475.19 3.117 2.642-1.21-1.185-1.683-1.144.242.791l2.151 1.556c2.8 4.043-6.068-5.259-3.586-1.902-4.076-3.491-10.785-9.887-10.04-8.19 6.006 6.351 6.449 4.667 12.693 11.343l.484.891c2.41 2.134 3.105 2.173 4.548 3.219-.003.228.487.892 1.914 2.384 4.315 3.357 6.956 5.81 11.019 8.826-9.813-9.027-7.689-8.417-17.762-17.79 1.679 1.369 8.637 8.101 9.572 8.006l-.465.283c3.355 2.967 6.707 5.935 10.555 10.027l-2.634-2.213c5.522 5.002 8.182 9.313 12.954 12.845-1.433-1.499-2.635-2.679-3.597-3.527 2.875 2.543 6.236 5.979 9.117 8.985l6.706 5.475c-.238.132 3.61 4.003 1.453 2.436 4.102 4.67 6.725 6.181 9.351 8.622 4.095 4.888-4.066-3.713-5.021-3.638 6.015 6.359 12.728 12.762 16.555 15.917-1.187-1.337-1.735-2.015-1.581-2.041.07.305 2.594 2.768 3.98 4.161l1.197.713.05.058.013.014-.129.128h-.002l-.007.005-.021.02a.477.477 0 00-.052.068c-.002.005.009-.02.001-.006-.021.042.008-.025-.007.013a.425.425 0 01-.074.146c-.011.01-.059.076-.077.071a.11.11 0 00-.044.009l-.035.014c-.029-.015.007.057-.086-.029.045.048.057.056.056.049l.015.002.023.01c.018.001.008.048.035.032.051-.036.049.032.099-.024.056.022.119-.125.14-.125.001-.03.001-.047.006-.049-.012 0 .04.002-.021.009a.498.498 0 00-.278.145l-.054.063c-.006.012-.061.078.007.017l.496-.406.25-.197.002-.001-.364.329-.001-.001-.001-.002-.001-.002-.001-.005v-.005c.004-.004.02.003.051.015.001-.01.076.021.134.018.04.036-.003.035.038.083.015.037-.029.04-.008.098l.002.01.001.005.001.002c.152-.139-.342.309.343-.31l-.003.003-.013.011-.1.088-.198.176-.402.351-.045.039.013-.024.031-.045a.354.354 0 01.077-.073.402.402 0 01.179-.067.427.427 0 01-.398-.011c-.028-.01-.069-.008-.078-.055a.066.066 0 00-.047-.022c.007.021-.054-.041-.114-.102l-.167-.168-1.264-1.26c-.794-.78-1.481-1.433-2.02-1.879a108.17 108.17 0 013.227 3.161l.268.276c.038.029.038.016.054.03.025.013.027.059.046.081.028.004.047.02.062.05.007.048.044.032.064.051.025.008.039.064.069.067.057-.012.111.096.175.075a.32.32 0 01.103.052.171.171 0 01.098-.001c.158.018-.054.056-.054.194l-.006.051c-.002.02.07-.044.102-.062l.249-.174.251-.176.127-.088.063-.045.032-.022.008-.006c-.592.535-.164.147-.296.268l.001-.001.003-.004a.34.34 0 01.106-.086c.054-.019.101-.046.115-.093.188-.118.231-.366.272-.632.034-.12-.046-.326-.038-.382.002.021.016.039.039.049a.119.119 0 00.044.01h.027c.012.001-.04-.054-.058-.078l-.312-.383-.16-.195-.081-.1-.02-.024.244.271-.006-.006-.011-.012-.046-.045a172.739 172.739 0 00-3.382-3.262c-.007-.239 1.913 1.23-.012-.701-4.557-4.378-1.666-.668-3.331-1.794 1.795 1.645 3.056 2.903 4.079 4.039.511.568.963 1.105 1.394 1.645l.633.813.001.002-.313-.347.002.003.004.008.009.014.017.027.034.056.067.11.134.224c.079.14.204.323.247.433.048.045-.246-.195-.495-.393a13.834 13.834 0 00-.189-.151l-.088-.07-.021-.017-.005-.004-.003-.002-.001-.001-.001-.001.34.376-.011-.007-.041-.026-.174-.113c-.037-.241-2.191-2.406-2.729-3.141l-.957-.155c.7-.188-2.417-3.98-5.299-6.53 2.423 3.066 1.698 2.308 1.939 3.56-4.298-3.34-3.839-4.779-8.626-8.553.463.179 4.307 3.809 1.187.471-2.653-2.692-2.643-1.99-4.546-3.673 2.389 1.649 2.145.856 4.771 2.606 4.796 4.702 1.911 1.921 6.714 6.401l-3.616-4.241c4.083 3.963 3.349 2.503 3.821 2.692-6.495-7.247-5.739-4.617-10.063-9.135-2.385-1.878 4.088 4.194.488 1.126-4.08-4.188-1.184-.702-5.985-5.182l.947.607c-1.199-1.639-2.872-2.771-4.551-4.374-1.917-1.693.76 3.328-6.688-4.069.467.261.666.329.709.286l10.345 4.136a1446.366 1446.366 0 01-24.607-25.182c-1.444-2.657 6.716 5.716 6.457 4.909l3.848 4.097c-.48.034-8.401-8.243-5.27-4.201 7.199 6.829 10.086 10.308 17.271 16.432-1.459-2.676-8.872-8.656-12.73-13.455 1.778 1.857 3.379 3.325 4.956 4.728l-12.783-13.294-1.187-.893c3.049 3.186 5.153 5.394 5.409 5.693-4.079-4.186-7.901-7.334-8.621-7.164l.719.75-1.633-1.354c-.945-.995-1.886-1.993-2.822-2.985zm36.934-269.03c-.209.294-.357.542-.441.75.087-.217-.124-.089.441-.75zm-1.511 319.1l8.14 8.389 4.021 4.15.997 1.025c.138.157.393.373.63.57.245.188.461.419.738.561 1.052.677 2.29.979 3.515 1.01-1.103-.106-2.168-.388-3.025-.971-.454-.246-.82-.592-1.167-.938-.394-.356-.547-.62-.815-.922l-2.621-3.208c-1.539-1.91-2.611-3.313-2.915-3.891s.162-.33 1.7 1.061c.769.695 1.806 1.676 3.148 2.982l2.248 2.208c.209.224.416.375.626.546l.318.259.374.192.38.202.423.123c.144.039.285.094.434.124l.46.042c.005.063 1.29-.119 1.274-.164-.628.071-1.396.108-2.168-.188-.402-.091-.76-.347-1.138-.564l-.518-.435c-.181-.152-.382-.379-.576-.568a287.92 287.92 0 00-5.054-4.983 628.596 628.596 0 00-7.656-5.94l-3.765-2.849c-.983-.73-1.608-1.174-1.609-1.125.724 1.216 2.405 2.36 4.092 4.197l-.491-.895zm-2.446-5.391c-3.025-3.222-2.51-2.315-3.169-2.625l3.349 3.216c-.371-.459-.514-.727-.18-.591zm-3.157-2.263c.347.355.638.663.771.844l-.771-.844zm-2.327-16.302l.331.31-2.208-2.29c.271.328.82.92 1.877 1.98zm5.91 6.77l1.063.421-2.071-2.146c.091.383.212.757 1.008 1.725zm19.323 21.435c.417.225 1 .661 1.651 1.187l1.016.84.261.22.131.11.065.056.002.002c-.044-.05.103.112-.099-.11l.003.004.008.008.015.016.03.03.474.49c.197.182.227.279.296.382.065.108.154.191.225.312.099.278.281.523.336.768.065.241.157.451.222.615.042.164.101.28.176.326.062.171.145-.008.213-.402l-.017-.728c-.034-.276-.135-.573-.203-.888-.069-.157-.154-.302-.229-.457-.082-.153-.125-.311-.278-.473l-.392-.489-.099-.123a6.953 6.953 0 01-.075-.077l-.224-.229c-.599-.61-1.215-1.24-1.85-1.889-.109.02-.425-.175-.908-.542 1.211 1.322 1.947 2.279 1.16 2.039-2.661-3.854-3.343-2.494-6.711-6.169-1.434-.807 3.608 4.23 4.801 5.171zM277.257 176.816c.139-.061.582-.305 1.189-.664l-2.261 2.7c-4.521 4.328-8.705 7.233-12.139 11.766-2.002 1.726-3.292 2.432-4.485 3.145.93-.895 1.807-1.726 2.555-2.399 10.362-11.971 6.671-4.973 15.141-14.548zm-51.656 50.09c.428-.484.52-.72.52-.72-9.07 10.703-16.974 19.08-22.335 24.378 1.357-.709 6.389-5.24 8.793-7.376l-1.643 2.381-1.546.966-3.158 3.828c1.225-.729 3.994-3.601 6.07-5.296.094-.234 5.701-6.702 7.161-8.617l-5.079 4.569c1.406-1.2 7.72-7.684 10.163-10.315-.136-.235-4.793 3.853-4.942 4.805-.794.247 4.244-4.798.762-1.904 3.485-4.071 9.74-9.837 12.665-12.49l.933-.011c3.239-2.881 1.512-2.623 5.414-5.992-4.379 4.559 1.261-.25-2.26 3.34 1.31-.961.511.464 4.039-3.133 2.355-3.576 4.137-3.372 6.402-6.714 2.063-1.682-1.648 2.383 2.118-1.221 3.907-4.547 3.433-4.533 3.25-5.239-4.077 3.828-3.863 5.018-7.204 8.143l5.669-7.19c-1.293 1.077-2.181 1.943-2.886 2.709 1.248-1.336 2.233-2.546 3.017-3.641l1.259-1.71c-3.648 3.64-6.895 6.866-7.656 7.249l.287-.718c-1.488 1.092-3.436 3.35-4.248 4.477-3.239 3.287-6.198 6.846-7.19 7.28l1.042-1.436c-3.953 4.074-4.374 4.548-9.417 9.598zm75.41 134.581c-1.641-3.22-3.623-6.598-15.105-17.804l.947.838c-5.221-6.213-11.802-10.491-18.206-17.997 3.673 3.078 3.464 2.923 7.871 5.969l-3.845-3.398c1.434.574-2.401-2.815-5.038-5.493l2.856 1.834c1.448 1.742 5.529 5.929 5.524 5.691-.962-.849 4.813 6.104 8.419 9.412-.011-.703-7.449-7.861-3.624-5.168-3.11-2.636-3.121-3.337-6.245-6.219 3.117 2.643 1.185.241 3.581 2.132l-5.042-4.806c-.013-.244 7.428 6.915 3.819 2.454-2.154-1.791-7.194-7.286-7.662-7.008l-.006-.236c-3.61-3.771-2.151-1.096-6.471-5.84-.241.134.494 1.128 2.156 2.713 1.455 1.289 1.922 1.243 4.8 4.017.976 1.56-3.372-3.445-1.904-.989.729 1.22 7.674 7.249 5.053 5.736l-3.604-3.764c-.468.279-3.114-2.41-3.341-2.034-2.39-2.115-4.095-4.661-6.721-6.637-1.196-.714.022 1.402-3.588-2.6-2.422-3.526-11.293-12.183-14.655-15.386l-3.111-2.635c.015.474 5.52 5.457 3.378 3.911l-4.57-4.391.489.202c-1.453-1.517-3.125-2.88-4.562-4.152 1.665 1.126 4.785 4.463 4.533 3.433-2.026-2.18-2.203-2.645-4.212-4.505.45.395.851.72.853.612-4.089-4.426-4.546-3.677-5.74-4.617-4.786-3.774 3.845 4.783 2.897 4.637l-12.711-12.283c1.194.941 2.394 1.891 2.151 1.328-2.886-3.245.232-.371-4.09-4.656-.226.838-5.75-5.088-9.098-7.82-1.202-1.639-1.451-1.975 1.662 1.125.005-.685-4.35-4.774-5.729-6.216a14.334 14.334 0 01-.532-.454c-.407-.364-.945-.78-1.404-1.277-.23-.248-.475-.488-.623-.775-.169-.273-.353-.526-.434-.788.154.828.22 1.076-.142.717-.078-.095-.206-.219-.302-.407-.09-.19-.193-.427-.31-.712-.121-.284-.142-.64-.222-1.036a5.956 5.956 0 01.052-1.35l-.036-.24c-.3 1.04-.346 2.288.075 3.472.394 1.209 1.34 2.148 2.234 3.144l2.724 2.88 2.507 2.587c1.604 1.62 3.038 2.982 4.09 3.796l-.954-.611c4.811 5.407 11.738 10.498 13.442 13.506-.476.041.967 1.086.505 1.369l4.053 3.471-.952-.613 6.483 6.315-.239-.1 8.166 6.489c.17-.155.022-.403 1.156.49a31 31 0 012.548 2.406c.006.004.006.004.008.003l-.002.002c1.522 1.618 2.335 2.897 4.173 4.926l-5.99-5.91c-.761-.208-.542.584 2.181 3.693-1.203-1.182-1.917-1.466-.473.042.234.09 4.075 3.723 2.872 2.078 5.753 5.552 14.179 15.428 23.286 23.485-6.481-5.851 4.571 5.312-2.387-1.42 4.336 5.22 4.546 3.676 9.348 8.615.256.574-2.631-2.672-4.063-3.479 7.921 8.274 14.376 12.949 22.076 20.917l-.01.68c1.529 1.439 3.224 3.038 4.987 4.699zm15.926 15.067l4.71 4.472-.44-.461 4.807 4.252c-2.648-2.918-4.104-5.13-.032-1.411-.47-.186.494 1.128-.943-.144 2.403 2.818 7.931 8.745 6.958 6.731-5.509-4.524-.506-1.832-4.813-5.408 2.454 1.775 4.397 4.024 6.546 5.87-2.363-1.796-.158 1.128 2.83 4.387 1.443 1.276 5.044 5.036 7.44 7.158-.487-1.124 1.663.661-1.938-3.101a63.455 63.455 0 015.769 5.797c-.983-.874-2.646-2.458-2.649-2.23 1.219 1.804 3.001 3.561 3.853 4.662l2.38 2.278c-.2-.257-.361-.49-.457-.677l2.869 2.307c-3.597-3.297-1.446-1.74-1.216-1.882-.465.28 2.171 2.267 3.362 3.434l-2.169-2.956c1.437 1.041 4.089 4.658 3.832 3.621-5.28-5.593-7.438-7.616-12.472-12.416l1.689 2.302c-5.764-5.331-2.896-3.946-9.136-10.155-2.866-2.309-9.38-9.342-10.068-8.91.951.609-3.378-4.374-5.765-6.254-2.869-1.846-10.067-8.906-8.142-6.514 1.921 1.933 4.794 4.244 6.01 6.126l-3.843-3.63 2.173 2.73c-1.168-1.366-1.317-.971-1.145.022zm56.69 33.921l-.137-.151.158.162-.021-.011z"/><path d="M331.411 120.34c.947-1.202 3.625-3.838 2.83-3.592.367.238-4.701 4.794-2.83 3.592zM334.883 117.457c.115-.259-.13-.244 1.052-1.447l-3.206 3.359 2.154-1.912zM340.273 116.186c1.469-1.918 2.414-3.117 5.092-5.754 1.733-.263-4.145 4.555-4.663 6.445 4.938-4.801 5.792-6.938 9.735-11.006-2.292 1.679-10.576 9.61-10.164 10.315zM339.038 119.278l2.543-2.874-.31.224-2.545 2.876zM273.991 171.555c-.475.014-1.936 1.928-2.785 2.889.751-.721 1.841-1.691 2.785-2.889zM307.408 168.781l20.438-20.882-20.438 20.882zM206.934 241.616c5.331-5.764 7.399-8.625 12.951-14.378-7.896 6.97-9.095 10.54-15.809 16.306l2.858-1.928zM207.058 237.827c1.352-.487-3.774 4.787-2.651 4.299 3.633-3.844 1.329-2.153 4.759-5.509l-2.108 1.21zM239.348 219.84l-1.457 1.907 1.272-1.437zM206.578 272.927l-.711-.516 2.645 2.919zM205.155 271.898l.712.513-.712-.513zM238.115 222.929l2.593-2.408 1.037-1.435zM213.727 242.675l2.098-2.375c-.417.47-3.654 3.352-2.098 2.375zM223.382 290.098l2.887 2.555-.235-.32-2.878-2.547zM205.14 258.354c-.141-.365.111-.207.428.063l.488.44.658.615c.187.166.278.229.203.105a3.804 3.804 0 00-.246-.334c-.106-.143-.376-.454-.428-.554l-.466-.415c-.891-.75-.665-.225-.637.08zM235.036 292.76c.367.367.765.742 1.175 1.078l-1.175-1.078zM235.036 292.76c-1.185-1.185-2.243-2.497-3.152-3.214 1.327 1.629 1.922 2.11 3.152 3.214zM248.691 306.26l-1.051-1.099c1.262.935.717.438-.395-.41-1.15-1.127-1.191-.958-1.399-1.021l-.829-.571 1.054.813c1.761 1.767 2.854 2.828 2.62 2.288zM293.522 362.302c-3.844-4.093-4.811-5.179-4.337-5.222-3.685-3.85-3.545-2.82-5.92-4.989 4.312 4.212 5.064 5.203 10.257 10.211zM283.265 352.091l-1.509-1.467a36.246 36.246 0 001.509 1.467zM235.644 287.569l2.862 2.071-.96-.85zM299.281 368.321c-.72-.753-1.91-1.921-2.401-2.589-.471.047 3.12 3.339 2.401 2.589zM289.038 347.953c-.245-.561-2.879-3.005-3.852-4.1 1.45 1.516 2.182 3.2 3.852 4.1zM311.732 378.641c-.719-.753-1.677-2.058-.974-1.781-1.195-.943-3.098-1.934.974 1.781zM296.244 355.253l-.478-.655-2.882-2.55zM290.37 341.753c-3.362-2.746 4.102 5.589-1.42.589 6.464 7.108-.084-.957 4.872 4.1-2.828-3.037-3.874-4.863-3.452-4.689zM293.823 346.441c.409.441.862.912 1.361 1.414l-1.361-1.414zM334.86 391.378a23.532 23.532 0 00-1.131-.922c.375.323.74.625 1.131.922zM310.063 362.173l-5.04-4.115c3.365 2.75 11.04 10.462 11.021 9.521-2.397-2.584-5.517-5.46-6.947-6.492l.966 1.086zM354.259 423.072l-2.16-1.796 2.416 2.523c-.638-.776.979.166-.256-.727zM354.983 424.287l-.468-.487c.094.117.241.272.468.487zM325.978 382.942c-1.446-1.512-2.642-2.683-4.073-3.949.472.646 4.076 4.413 4.073 3.949zM368.858 436.331l-3.344-3.187 3.596 3.529zM387.764 421.469l-.477-.65-2.872-2.542.486.659zM372.447 423.361c-2.164-2.263-4.307-3.578-3.814-2.911l4.31 4.272c-.729-1.452-1.201-1.18-3.598-3.759l3.102 2.398zM274.016 309.073c1.2.717 5.754 5.551 5.771 6.026-.73-.531-3.371-2.98-1.919-1.235l4.308 3.12c4.569 5.31-4.535-2.975-7.185-5.204 4.956 5.108 6.838 6.21 12.188 11.565a37.339 37.339 0 01-3.082-3.739c.236-.6 5.039 4.573 8.638 8.105-2.089-2.451-.622-1.291 1.195.198.311.285.532.459.701.571l.62.503-.429-.427c.078-.017.04-.168-.191-.554-3.113-2.87-5.052-5.508-6.973-7.439 1.224 2.583-6.717-6.402-9.348-8.615l-2.863-2.729-1.048-1.045c-.136-.285.256-.081 1.985 1.38-1.466-1.197-5.857-5.684-5.666-5.055l-10.14-10.121a11.423 11.423 0 01-.754-.976c-.394-.309-.487-.332-.476-.251-12.412-12.385-24.824-24.769-37.208-37.153l.146-.178c-.087.057-.19.115-.306.178.03.169.069.4.252.691-.561-.109-.465.027-.229.297l.084.098c.04.045.006.017.21.228.298.313.577.611.795.862.437.502.635.813.282.673-.417-.34-.866-.736-1.323-1.162-.303-.287-.272-.246-.352-.32l-.177-.173c-.227-.238-.4-.487-.473-.664-.235-.021-.32.099-.37.263-.054.159-.072.365-.29.405a6.3 6.3 0 00.617.708c.056.052.81.771 1.26 1.165 1.004.892 1.901 1.592 2.798 2.284 1.793 1.385 3.585 2.739 6.228 5.539-.474.043-2.382-1.414 1.215 2.113l-.961-.85c5.993 5.415 3.86 5.028 8.159 7.911l-.467.278c2.869 2.307 7.905 7.339 10.793 10.124l-.241-.097c8.385 7.531 4.558 4.377 13.673 13.135l-4.548-3.678c2.903 3.262 4.071 3.484 6.235 5.746-.23-.087.011.699-2.147-1.323l11.507 10.181c2.87 2.309-.25-.797-.494-1.359zM287.179 323.345a52.817 52.817 0 001.982 2.01l-1.982-2.01z"/><path d="M222.601 255.502l-.313.32a.865.865 0 00.313-.32zM303.536 338.074c-1.688-2.072 1.677 1.139 2.148 1.323l-6.741-6.728c-.113.174-.94-.332-.937-.065l5.53 5.47z"/><path d="M297.265 330.449c-.328-.128-1.13-.751-2.014-1.465l3.692 3.686c.085-.131-.23-.643-1.678-2.221zM290.312 338.828l-1.205-1.18-1.914-1.692zM272.299 319.551c1.205 1.642 4.072 4.178 5.031 5.026-3.12-3.107-1.688-1.841-5.031-5.026zM273.812 325.731l-3.124-2.877.237.323zM243.191 231.977l1.442-1.491a46.427 46.427 0 00-1.442 1.491z"/><path d="M220.471 255.408c1.032-.718 1.06-.569.958-.313-.118.272-.422.709-.392.905.287.136.499.156.671.062a.577.577 0 01-.088-.062 4.26 4.26 0 01.27-.598l.152.135.327-.374 2.103-2.15c-1.221.729-1.968 1.446-2.015.975 6.443-6.241 2.306-1.693 7.285-6.02l7.042-7.136-.496.651c.591-.603.823-.898.985-1.146l23.729-24.051c4.142-4.551-2.868 1.939-.043-1.647-5.037 5.039-12.797 12.25-12.71 13.193.098-.24.289-.716-.793.245l-2.489 3.337 2.913-2.643c-2.507 3.353-12.062 12.719-14.035 14.167 5.236-5.524 2.027-3.333 9.799-10.552-.467.206-2.069 1.348-.454-.411-4.316 4.466-8.5 8.608-12.688 12.826a571.372 571.372 0 00-6.301 6.433l-1.587 1.662-.797.841-.385.41-.118.145c-.311.385-.599.762-.843 1.116zM305.638 169.744l-.022.116c.133-.183.165-.253.022-.116zM302.626 172.628l-3.774 4.786 6.633-6.714.131-.839c-.5.68-2.661 3.199-3.706 3.968l.716-1.201zM294.187 182.689c3.296-3.597 2.692-3.827.622-2.137 2.971-3.358 2.118-1.221 3.856-3.841-.372-.229-4.097 3.848-4.938 4.8l.46 1.178zM268.538 207.899l.796-1.142-2.433 2.341zM269.334 206.757l2.417-2.323c-.292.035-.58.072-1.054.371l-1.363 1.952zM278.091 198.334a215.453 215.453 0 003.53-3.398l-3.53 3.398zM275.274 200.938l.135-.026 2.683-2.578c-1.009.931-1.912 1.767-2.818 2.604z"/><path d="M271.751 204.433c.677-.093 1.435-.237 4.78-3.745l-1.123.224-3.657 3.521zM252.427 303.466l-2.876-2.545.241.332 2.875 2.543zM237.054 287.559a53.508 53.508 0 00-1.8-1.479c.738.674 1.348 1.186 1.8 1.479zM223.433 277.929c-2.894-3.482 4.787 4.01-.986-2.025-.247-.793 2.873 1.621 5.517 4.537-.479.037-2.874-2.544-1.427-.572 2.144 1.549 2.643 2.454 2.388 1.423 3.348 2.863 3.97 2.934 6.331 4.789-3.926-3.584-11.411-11.866-16.674-16.133-3.094-2.16-2.137.069-2.822.733.236.554 6.97 7.438 7.673 7.248zM227.777 283.619c1.442 1.508 1.92 1.933 2.881 2.781-.014-.474-1.679-1.599-2.881-2.781zM223.065 243.243c.186-.377 2.736-3.166 1.997-2.758l-3.926 4.168c.965-.934 1.417-1.152 1.929-1.41zM219.412 246.48l1.723-1.827c-.452.435-.988.997-1.723 1.827zM223.316 243.11l-.251.133c-.037.077-.006.087.251-.133zM288.079 188.681c.128.242 1.82-1.672 2.671-2.632-.751.721-1.845 1.693-2.671 2.632zM355.24 120.064l1.74-1.446c-.651.476-.983.721-1.74 1.446zM374.74 90.46c.011-.083.098-.23.229-.417-.136.181-.216.322-.229.417zM374.969 90.042c.935-1.242 4.535-4.364 5.509-5.806l-.082.225 1.056-1.194.387-.438c.059-.068.131-.143.17-.196a5.11 5.11 0 01.07-.121l.153-.235c-.112.217-.956 1.039-1.644 1.737l-2.26 2.301c-1.499 1.545-2.861 3.005-3.359 3.727z"/></g><g fill="#202020"><path d="M287.044 90.354c1.595-1.673 3.24-2.879 2.725-2.166 3.062-3.595 3.437-3.363 3.352-4.311 1.884-2.39 4.514-4.318 2.292-1.679l5.845-6.476-3.764 3.603c.287-.716 1.791-2.155 3.307-3.624l.565-.551.141-.137.069-.068.306-.278.3-.243.293-.24.144-.119c.041-.036.182-.122.268-.179.397-.253.801-.482 1.192-.684.398-.209.688-.269 1.017-.396.316-.099.607-.229.89-.278.563-.118 1.037-.219 1.383-.327l-.68.052a6.86 6.86 0 00-1.763.342c-.361.116-.718.2-1.203.47a12.91 12.91 0 00-.696.388l-.349.215a2.63 2.63 0 00-.278.192l-.656.543-.042.035-.297.268-.076.078-.154.156-.311.314-3.313 3.355.191-.476c-1.365 1.671-4.379 4.557-5.467 5.525.092-.233-.126-.244 1.037-1.433-8.084 8.019-1.419 2.919-7.957 9.742.406-.426.931-.938 1.689-1.613zM279.156 96.144l-2.271 3.346-4.851 4.573c.133.239-3.149 3.821-.662 1.661.425-.484 1.268-1.437 2.01-2.146-.124.927-6.065 6.466-4.274 5.487 3.62-3.833 4.28-4.316 6.248-6.936 3.453-3.379 6.033-5.774 7.774-7.223.953-1.075.85-1.464 2.089-2.801l-.859.891-.742-.464c-.947 1.202-2.023 2.157-3.203 3.362l4.811-6.22c-2.344 1.213-7.431 6.964-9.83 8.895 3.192-2.176-1.888 2.392 3.76-2.425zM285.219 92.107l.134-.137-.134.137zM247.676 368.013c-1.183-1.162-1.671-1.365-1.913-1.463l13.214 13.192c-.255-.572-3.861-4.571-1.226-2.125-.958-1.309-4.56-4.61-5.274-4.897l1.199.716c-3.352-2.732-4.821-5.419-2.655-3.618l-.26-.253-9.617-7.234c3.024 3.163 2.793 1.972 6.532 5.682zM298.826 94.048c-1.655 1.766-1.809 2.034-1.556 1.898a35.051 35.051 0 001.556-1.898zM238.895 360.641l-3.012-2.267c1.158.957 2.22 1.752 3.012 2.267zM262.849 373.255c.025-.015.071-.004.028-.1l-1.375-.994.03.03 1.317 1.064zM177.588 302.135l-.893-.84c.318.312.614.587.893.84zM300.746 406.89l-6.229-5.512c.952.613-1.931-2.168-.496-1.129-.474-.42-2.639-2.45-2.154-1.791l1.209 1.187c-3.59-2.601-1.905-.536-7.414-5.292 2.893 3.48 4.559 4.608 6.471 6.071l1.604 1.468 5.572 4.189 1.437.809zM219.839 178.653l-.026.103c.046-.073.044-.097.026-.103zM219.715 179.17l.098-.415c-.236.395-1.368 1.679-.098.415zM240.185 361.291c-.172.012-.623-.215-1.29-.649l2.249 1.689-.959-1.04z"/><path d="M245.745 364.69l5.015 4.875 2.08 1.566c-1.989-1.795-4.269-3.942-7.095-6.441zM185.107 310.235c-10.319-10.167 3.099 1.935-1.468-2.912-2.912-2.775-4.192-3.503-6.052-5.188 8.36 7.888-2.012-.191 6.329 7.855-1.666-.665-6.454-5.364-9.099-8.279-2.666-3.629 3.103 2.396 4.288 2.638-3.367-3.21-2.875-2.543-4.539-3.669-5.05-5.274-11.273-10.09-13.688-13.841-3.843-3.631-3.828-3.154-6.23-5.05-.943.089 5.287 5.829 6.266 7.62-.244-.331-.716-.978-.481-.888l3.123 3.339c-2.888-3.246.941-.089 2.621 1.51 1.203 1.182 3.596 3.529 3.127 3.346l-1.917-1.694c2.161 2.486 5.503 4.75 7.678 7.483.013.244-.97-.63-1.183-.698 3.102 2.397 5.733 5.069 10.052 8.891l-2.871-1.849c3.821 2.69 11.033 10.224 15.843 15.631-.48-.653-1.44-1.735-.729-1.221 3.124 2.879 5.039 5.496 3.38 4.375 3.355 2.508 10.813 11.527 15.359 14.972l20.968 15.77a47.962 47.962 0 01-2.324-2.042c-1.221-2.119-2.175-2.964 1.174-.461-3.11-2.636-2.373-1.178-6.708-5.475 1.918 1.467 2.861 1.38-1.22-2.808-10.784-9.888-18.91-15.462-29.215-24.463-.011-.702-7.687-8.184-11.289-11.948 1.777 1.034 4.617 3.662 7.529 6.424l-7.069-7.169-1.655-.199z"/><path d="M210.269 333.074c-.227-.29-.477-.574-.735-.865.117.175.334.435.735.865zM194.685 318.478c.049.022.047-.001.074-.003l-.927-.873.853.876zM238.544 358.088c.712.515 1.194.941 1.906 1.455l-1.398-1.218c-.481-.389-.735-.548-.508-.237zM240.003 360.763l-.47-.186.652.713c.148-.005.136-.146-.182-.527zM149.093 267.966l-1.057-.906c.598.585.883.809 1.057.906z"/><path d="M174.284 298.238c3.596 3.528.942-.091 5.984 4.946l-1.447-1.51c3.836 3.395 10.089 9.851 14.404 14.129-.69-.278 2.355 2.855 1.534 2.672 3.011 2.862 5.991 5.699 7.833 6.883 1.712 1.928 4.766 4.401 6.942 6.851-.783-1.17 3.947 2.64-1.919-2.754.481.429.24.1.716.521-3.357-3.896-5.268-4.894-8.398-8.011-1.677-2.058 3.362 2.747 1.676.908-4.078-3.724-12.011-12.471-12.47-11.495-2.889-2.788-3.123-3.338-3.838-4.315-5.255-3.727-16.337-16.994-17.273-15.976 1.678 1.601 4.329 4.293 6.943 6.489l-.687.662zM232.511 352.156l-.684-.703.684.703zM274.633 399.94l-2.129-.851c-8.635-8.33-11.521-11.576-18.964-18.968-.479-.654.476.19.96.618-5.288-5.14-12.956-13.076-17.044-16.578-1.654-1.664-5.807-6.222-3.97-4.762-.864-.751-1.842-1.619-2.75-2.568-.017-.475 2.144 2.013 2.385 1.878-.72-.751-.963-1.083-1.205-1.18 1.436 1.041-.506-2.063 5.255 3.727 1.7 2.772-4.068-3.944-3.339-2.031 1.912 1.919 1.918 1.468 2.154 1.56 2.428 2.454 2.215 2.539 1.95 2.544 1.119.752 3.934 4.078 5.505 5.091 4.793 4.702-.703.187 2.405 3.28l2.387 1.188 5.042 5.269c7.674 7.253-.032-2.103 8.838 6.089-1.434-.809 1.462 3.139 5.308 7.234-2.397-2.354-7.18-6.354-10.068-9.599 3.854 4.793-6.006-5.894-4.3-3.113 2.391 1.883 5.987 5.41 8.628 8.326l-.966-.855c2.891 3.019 5.755 4.628 9.592 8.944 2.046 2.007 1.497 1.797 1 1.58 1.804 1.624 3.453 3.039 3.326 3.177zm-4.539-4.288l-2.651-2.771c.544.743 1.558 1.751 2.651 2.771zM241.325 134.131l.872-.775c-.207.153-.532.452-.872.775zM244.932 381.937l-1.55-1.59a53.8 53.8 0 001.55 1.59zM207.717 348.68l-2.433-2.153c.914.897 1.679 1.55 2.433 2.153zM222.564 152.809l-.081.073-.33.394.411-.467zM138.449 276.607a22.565 22.565 0 00-1.146-1.409c.005.123.44.644 1.146 1.409zM208.166 349.077l-.128-.15a78.997 78.997 0 01-.321-.246l.449.396zM258.705 399.206l1.065.945c-.486-.462-.798-.73-1.065-.945zM258.192 395.294c.377.347.741.674 1.036.917l-1.036-.917zM314.509 423.069l-2.199-2.027c1.048 1.029 1.702 1.616 2.199 2.027zM263.393 401.28c.15.095.301.191.409.246-.311-.273-.485-.377-.409-.246zM256.542 122.486l-.126.13.017.124.109-.254zM260.809 116.474l1.808-1.906a37.08 37.08 0 00-1.808 1.906zM137.52 238.251c.646-.473 2.063-1.683 1.549-.971.946-1.196.572-1.428-1.549.971zM249.99 136.541c.256-.417.613-.898.973-1.38-.695.87-1.309 1.628-.973 1.38zM250.963 135.161l1.01-1.281c-.364.441-.705.874-1.01 1.281zM130.949 255.861c-.093.113-.12.295-.114.545.137-.083.108-.273.114-.545z"/><path d="M264.213 113.163c.19-.476 7.954-8.86 1.09-2.142-.183-.707 4.151-4.563 5.852-6.484-1.42 1.211.368-.939-.189-.699-.845.952-1.784 2.147-3.301 3.6-.885.479 1.229-1.911 3.064-3.594-2.402 1.932 2.396-3.103-.85-.215-6.399 6.713-10.871 11.507-14.832 16.768 3.629-3.844 7.678-8.157 10.921-11.043l-.903 1.673c-3.803 3.126-5.688 5.517-9.131 8.889l7.858-7.45c3.905-3.265 1.58-.793-1.176 2.103.7-.692 1.352-1.298 1.597-1.406zM262.431 121.696l.14-.117c.098-.126.229-.274.283-.362l-.423.479zM307.115 431.244l-.804-.513c.615.484.83.608.804.513zM256.002 124.398l.005-.005a.375.375 0 01-.005.005zM302.382 426.186c.033.014.067.025.12.055-.07-.048-.082-.036-.12-.055zM289.715 430.107c.012.049.005.074.058.163.371.327.219.141-.058-.163zM302.333 426.21c.012-.012.013-.034.049-.023-.025-.001-.066-.016-.049.023zM221.38 348.08s.185.317.517.777c.189.117.077-.078-.517-.777zM236.512 364.35l.244.33-.244-.33zM132.074 240.232a64.707 64.707 0 00-1.831 1.872 43.214 43.214 0 001.831-1.872zM302.502 426.241c.205.123.48.314.917.647-.479-.369-.746-.55-.917-.647zM195.497 326.084l.525.44-.268-.306-.257-.134z"/><path d="M187.587 317.607c.323.236.498.318.693.437-3.084-2.765-8.283-8.312-9.328-8.538 1.002.982 5.907 6.367 4.791 5.73 2.141 1.937 4.867 5.236 6.032 6.267-3.123-3.57-.017-.707 2.381 1.415 1.936 2.174-.716-.058.978 1.788l4.8 4.709-4.088-4.195 1.652.864-.459-.385c-7.192-6.824-.021-1.171-7.452-8.092zM188.28 318.044c.463.413.878.769 1.22 1.025-.668-.654-.965-.871-1.22-1.025zM160.303 288.768L159 287.59l1.303 1.178zM256.289 374.711c.007.238 3.851 4.561 4.08 4.185l-3.563-3.754-.517-.431zM169.915 210.103c-.463.446-.923.898-1.375 1.359l-.218.313c.323-.233 1.167-1.189 1.593-1.672zM182.338 314.117c.795.702 1.176.987 1.404 1.119-.509-.461-.995-.869-1.404-1.119zM170.891 210.566c.666-.493 1.651-1.214 1.888-1.22 1.188-1.182 1.861-2.173 3.011-3.436-1.318 1.405-2.923 2.95-4.899 4.656zM175.882 205.806l-.092.104.092-.104z"/><path d="M253.989 372.153l-1.149-1.021.646.484-2.717-2.9a47.578 47.578 0 01-1.205-1.108c.192.171.365.279.485.334l-.864-.936c-2.55-1.923-8.344-7.26-10.134-8.681-2.258-1.99-4.934-4.515-6.541-6.169 1.505 1.518 3.574 3.461 3.146 2.686-2.888-3.249-3.86-5.26-9.603-10.109l3.113 3.099-7.656-6.312c-2.168-2.726 3.821 3.15 5.033 3.878-5.763-5.101-9.395-10.503-12.495-12.439-.009-.699-.029-1.871-3.627-5.4 2.176 2.964-2.39-1.884-.703.646-1.429-1.033-3.852-4.1-4.314-4.047l.476.19c-5.539-6.632-8.388-7.768-11.273-10.089-7.428-7.146-10.55-10.717-16.551-16.602-.002-.465-.984-2.719-3.393-5.079-1.421-.796-6.944-6.028-7.895-6.177 4.095 4.43 3.824 3.151 6.469 5.609 1.704 2.545-.223.608 2.427 3.761-2.178-2.505-10.799-10.361-12.969-13.319l.96.85c-3.854-4.333-3.644-6.106-11.064-12.326l-3.5-3.009c.197.117.262.088.381.136-2.642-2.684-3.486-3.776-4.449-4.888a28.54 28.54 0 00-.778-.866 38.73 38.73 0 00-1.1-1.121c-.862-.848-2.012-1.921-3.817-3.545.557.501.314.17.87.672a48.137 48.137 0 00-2.23-2.354c1.419-1.432 2.693-2.86 3.94-4.277l1.833-2.083 1.536-1.715c1.881-1.213-.038.696-.753 1.895 6.026-5.768 11.816-12.705 15.07-16.774l3.997-3.605c-2.116 2.393-4.519 5.5-3.629 5.014 2.023-2.157 1.461-1.911 4.481-4.803-.291.718-1.332 2.158-2.453 3.817 6.472-5.756.609-2.125 5.543-5.748 1.925-1.917 2.729-3.345 2.681-3.813l3.818-3.143c.058-.715 4.335-5.031 7.101-7.896.202-.485-2.618 1.916-3.558 3.11-.048-.468 2.826-3.585 4.758-5.507 1.395-.016 12.513-12.713 11.048-9.623 8.429-8.878 20.516-21.104 25.939-27.104 2.074-1.693 5.922-5.521 3.946-2.897 6.969-6.963 9.853-11.264 16.956-17.989.658-.486-3.12 3.132-2.644 3.116 4.243-4.795 8.514-7.93 15.342-15.126-1.167 1.192-1.369 1.678-1.461 1.914-.237.009 2.635-3.11 4.339-5.035 1.079-.96-1.275 1.44-.616.956 13.88-13.21 23.262-24.467 36.765-37.908-3.856 3.838-4.854 5.749-4.707 5.978l3.777-3.761c1.224-1.681 4.055-4.51 6.25-7.047.376-.205 1.62-1.264.554.019 3.954-3.491 6.652-6.607 9.533-9.961l2.217-2.57.283-.328.169-.263c.116-.171.25-.33.308-.536.183-.369.277-.784.312-1.201.03-.42-.011-.855-.142-1.268-.079-.193-.126-.45-.224-.55a1.382 1.382 0 01-.099-.217l-.021-.061-.085-.101-.17-.203-.343-.411-.043-.052-.006-.006c.238.264.063.071.115.129l-.009-.006-.018-.013-.07-.052-.139-.107-.269-.23a5.05 5.05 0 01-.32-.162c-.225-.156-.388-.158-.553-.246-.039-.053-.256-.074-.457-.095l-.596-.071.674.008c.092.005.26-.006.32.014a2.11 2.11 0 00.451.074l.331.132c.254.063.479.222.731.387l.098.06.051.03.024.015.007.004.003.002c-.041-.046.098.106-.092-.104l.014.015.229.236a936 936 0 00.466.484c.276.391.668 1.11.757 1.874a4.447 4.447 0 01-.413 2.247c-.211.328-.369.617-.647.947l-.767.906-1.582 1.87 3.054-2.413-4.438 5.277c3.14-2.688 5.129-5.627 5.741-6.004-.066.245-.257.515-.476.806l-.337.446-.328.367c-.424.479-.766.899-.695 1.016.734-.683 1.259-1.118 1.754-1.784.254-.285.399-.595.531-.883.134-.287.266-.546.31-.828l.169-.806.02-.848c.027-.295-.05-.605-.096-.947-.029-.345-.146-.704-.287-1.104.488 1.006.671 2.366.273 3.745-.196.681-.51 1.386-1 1.99-.112.149-.242.332-.349.455l-.321.363-.658.736a309.876 309.876 0 01-5.769 6.217l-10.958 11.426c-.861.971.614-.954.704-1.188-2.352 2.399-3.997 3.605-6.865 6.717-1.559 2.155 1.636-1.198 3.141-2.64.056.462-.701 1.188-2.304 2.868-.701.011-9.132 8.887-11.668 10.581-8.661 8.878 2.296-.508-6.415 7.902l-2.952 2.162c-4.664 5.275-10.821 11.974-16.53 17.514l1.172-1.198c.621-.958-.788.242-1.452.733-4.419 4.081-7.759 8.379-10.729 10.559-4.427 5.267-12.198 13.659-17.523 19.418-2.016.974 6.788-7.672 8.768-10.303l-5.042 5.047c3.111-3.125 4.145-4.555 5.718-6.721-4.518 4.325-5.516 6.234-9.576 10.558.185-.468-.462.005-2.399 1.934l-.203.895c-.064.007-.304.195-.923.77l-7.247 7.669c1.73-1.435 2.108-1.21 4.039-3.133-.89.486.705-1.188 2.638-3.11-1.463 1.915 2.07-1.689 2.216-1.462-3.875 3.856-8.577 8.651-11.016 11.28l-1.142.505c-3.764 3.603-7.477 7.67-10.068 10.076l.619-.957c-4.517 4.322-8.664 8.879-12.898 12.492-3.578 4.306-8.238 9.572-11.079 13.174-1.312 2.135-12.083 11.051-15.948 16.074-.344.255 2.743-3.362 4.104-5.034-3.02 2.893-4.859 5.754-6.218 6.249 6.779-6.489-.702.011 2.164-3.101-3.098 3.114-6.295 6.468-7.664 8.146 5.023-5.031-1.188 2.383 3.713-2.895-1.704 2.05-3.782 4.376-6.014 6.741l-2.165 2.278a40.256 40.256 0 01-1.651 1.583l.289.325c-.374 0-.263.283.545 1.246.019.02 1.1.559 1.081.54.499.548-.095.114-.621-.239-.516-.344-.963-.607.2.651.423.308.623.43 1.474 1.228a100.9 100.9 0 012.239 2.15l4.701 4.738c3.092 3.126 5.914 5.882 7.339 6.45 3.133 3.81-6.949-6.263-2.131-.616-3.353-2.734-7.197-7.287-8.628-7.863 3.105 2.861.727 1.45 2.647 3.379l3.591 3.063-.72-.752c5.987 5.179 14.639 14.219 21.837 21.28 6.47 5.608 11.25 9.144 18.447 16.435-2.391-1.886 5.773 6.259.75 2.162 3.129 3.574 6.702 6.62 6.955 6.499-2.885-3.014-.977-1.097-3.369-3.673 1.903 1.45 5.758 5.326 7.198 7.062-.72-.753-.483-.43-.716-.521 3.369 3.673 1.913 1.463 4.552 3.913.49 1.124 5.534 5.703 7.694 8.19l3.821 2.918c-2.148-1.554 3.121 3.338 3.378 4.143 2.626 2.207 5.02 3.865 8.62 7.625-1.675-1.365 3.134 3.581 2.896 3.946 6.013 6.59 11.257 9.613 16.793 16.014-.255-.115-1.658-1.122.011.698 1.458 1.29 3.828 3.731 5.332 5.169l-.056-.038.086.068c.735.703 1.226 1.119 1.316 1.063 2.812 2.222 4.41 3.217 9.612 7.919-.019-.709-4.333-4.756-6.254-6.455l-1.905-1.224c-.975-2.016-4.557-4.376-5.52-5.689 3.581 2.36 11.986 11.065 17.493 15.822-2.648-3.609-9.38-10.492-15.378-16.373l2.409 2.822-3.114-3.101 2.641 3.375c-2.879-3.009-5.518-5.459-8.158-8.141 3.122 3.108 3.86 4.798 2.172 2.96-3.133-3.81-3.838-3.396-6.471-6.07 1.446 1.509 3.361 3.436 1.925 2.395-4.818-5.646-6.501-6.79-10.816-11.99.015 1.165-6.002-5.888-7.186-6.129l2.16 2.256-5.031-4.336c-3.853-4.79 4.303 3.349-1.941-3.559-6.01-6.126-6.457-5.364-11.272-10.09 1.913 1.23 5.988 4.722 9.828 8.58l-2.167-2.495c1.431 1.036 6.714 6.402 9.351 9.079-4.782-4 1.935 2.175 3.626 4.479.697.037-2.174-2.729 1.419.334-3.125-3.112-3.608-3.54-7.451-7.632 8.425 8.726 8.855 6.566 16.063 14.328-3.599-3.301.727 1.679.982 2.254 1.663 1.584 5.035 4.799 6.472 6.07l-.75-1.702c4.566 4.154 5.072 6.678 10.596 11.22.939.368-4.33-4.523-3.369-3.674 7.185 6.587 8.897 9.835 14.653 16.308.489.202.72-.171 3.109 1.716-.957-.386.479 1.343-2.137-.854 1.924 2.165 4.556 4.377 6.47 6.068-4.088-4.423 2.152 1.33 3.107 1.943 2.156 2.253-.957-.387-2.396-1.66 1.693 1.847 3.375 4.37 4.808 4.947-.231.371-5.738-4.154-9.098-7.357l2.163 2.26c-1.677-1.369-1.919-1.698-4.067-3.94 1.916 2.383 1.446 2.428.731 2.142-.238-.325.228.085.002-.227-1.691-1.845-3.13-3.118-2.88-2.548-1.994-1.186 2.199 2.704 3.195 4.104l2.778 2.617 10.483 7.886c4.075 3.772 5.528 5.848 8.28 8.991l1.156.462c3.378 3.45 6.49 6.781 3.862 5.033-.007-.239-.485-.662-1.21-1.42-.146-.051-.35-.188-.593-.377-.092-.051-.151-.07-.23-.108l6.349 5.951c-6.713-5.704-.941.32-2.596-.103a250050.002 250050.002 0 004.423 4.149l.547.513.713.805.196.225c.02.017.081.104.139.19l.16.242c.204.315.371.603.501.841.263.481.382.76.368.745a12.049 12.049 0 00-1.083-2.068 14.947 14.947 0 00-.099-.141l-.173-.248a64.83 64.83 0 01-.249-.376l-.022-.036-.003-.004-.288-.319-.006-.009-.012-.016-.043-.057-.062-.092c-.063-.101-.047-.122.027-.082.037.02.088.055.152.102l.05.038.004.003.299.33.006.006.013.012.025.024.11.109c.16.164.342.348.566.6.418.577.847 1.284 1.182 1.997.225.604.437 1.23.576 1.816.099.595.162 1.153.202 1.609a6.203 6.203 0 00-.185.877c-.081.445-.131 1.034-.361 1.701-.101.335-.217.695-.349 1.071-.167.362-.359.741-.569 1.13-.196.4-.457.772-.758 1.139l-.453.558-.238.278-.03.034-.352.318-.037.032-.075.064-.607.525c-.418.308-1.045.691-1.601.976l-.434.214-.367.13-.744.239c-.495.169-1.001.247-1.508.297-1.006.152-1.996.033-2.896-.106-.89-.226-1.712-.462-2.357-.848l.435.106c-.598-.333-1.277-.66-1.863-1.193-.3-.248-.624-.529-.905-.793l-.474-.495-2.096-2.124a186.635 186.635 0 00-4.346-4.177c0 .231-3.823-2.459-5.729-3.683 4.228 4.486 1.503 2.04 1.638 2.604-.432-.47-1.238-1.285-1.377-1.335-.723-.525.715.978.724 1.215 2.396 2.235 4.797 4.532 6.896 6.446a79.094 79.094 0 002.882 2.529l.76.616c.447.356.89.674 1.313.95.865.525 1.724.843 2.421 1.058-.974-.528-1.896-.997-2.643-1.629-.371-.288-.802-.64-1.091-.889l-.511-.427c-.688-.565-1.407-1.144-2.129-2.012a32.772 32.772 0 012.027 1.671c.174.157.351.315.53.478l.322.292.613.512c.812.706 1.8 1.235 2.849 1.707a10.98 10.98 0 007.158.306c.311-.093.622-.193.932-.303.378-.168.76-.358 1.133-.567.374-.209.742-.437 1.096-.678.11-.075.142-.102.165-.121l.093-.075.187-.15.377-.305.047-.039.024-.019.443-.402.022-.024.175-.195.346-.399c.457-.544.903-1.103 1.231-1.765l.336-.506c.206-.306.454-.725.637-1.18.198-.449.378-.914.504-1.266.117-.353.16-.598.16-.598l.049-.521c.017-.332.079-.808.042-1.374a17.6 17.6 0 00-.243-1.925c-.193-.702-.382-1.381-.713-2.151a14.576 14.576 0 00-1.078-1.866l-.198-.282c-.078-.11-.067-.083-.105-.131l-.583-.656-.434-.479-.034-.031-.066-.062-.122-.112-.198-.184c-.11-.102-.174-.159-.174-.159.222.183.404.322.563.436l.059.041.028.02.002.002.408.45.004.003.006.006.014.011.1.081.184.142.338.239.173.124c.078.07.257.301.391.474.29.383.614.855.958 1.479l.255.492.178.446c.12.315.244.668.364 1.063.409 1.553.847 3.979-.371 7.151.204-.365.687-1.351.877-2.805.086-.731.179-1.567.063-2.479a15.31 15.31 0 00-.191-1.412c-.121-.478-.265-.97-.432-1.465-.197-.829-1.262-2.634-1.808-3.296l-.473-.545-.57-.636-.132-.126-.264-.252a49.744 49.744 0 01-1.989-1.999l-1.658-.888c.705.275-4.578-5.091-.502-1.601a14662.059 14662.059 0 004.701 4.245l.135.122.066.06.033.03.008.007.498.55.015.016.443.489.196.217c.005-.006.145.191.21.282l.234.339c.298.444.537.852.723 1.19.373.686.533 1.08.516 1.052.021.031-.136-.422-.453-1.1a15.39 15.39 0 00-.589-1.13l-.544-.896-.427-.726-.524-.581-.007-.009-.012-.017-.024-.033-.044-.06c-.027-.037-.052-.07-.071-.098-.039-.054-.063-.084-.063-.084l.228.22.027.027.551.607.056.066.126.15c.091.107.192.229.304.36l.085.102.043.052a.96.96 0 01.084.11 15.95 15.95 0 011.532 2.641c.234.57.384 1.073.552 1.645l.222.847c.048.287.087.578.122.869.37 2.341-.158 4.707-.773 6.361-.354.812-.712 1.47-.968 1.92-.249.457-.441.679-.441.679s.037-.059.104-.16c.068-.1.154-.251.246-.44.189-.374.429-.881.641-1.395a7.991 7.991 0 00.468-1.439l.154-.67c-.12.45-.253.885-.395 1.302-.151.412-.351.797-.536 1.173-.19.375-.387.733-.587 1.074-.208.334-.448.632-.675.928-.23.293-.462.571-.693.835l-.173.195-.087.095-.021.024-.011.012-.575.52-.02.017-.153.128c-.203.166-.394.322-.572.47-1.013.753-2.552 1.575-3.335 1.788-.857.261-1.606.481-2.271.542-1.335.146-2.272.109-3.004-.035-.731-.132-1.259-.234-1.765-.446a40.673 40.673 0 01-1.679-.685c-.635-.343-1.486-.746-2.516-1.509a26.233 26.233 0 01-.804-.657l-.435-.38-.224-.204-.105-.104-.883-.861a122.307 122.307 0 00-2.647-2.434c-3.1-2.168-5.981-4.949-11.025-10.22 3.836 3.627.712.054 2.386 1.188-3.611-4.001-5.28-4.901-7.437-6.694-.724-1.216-1.212-2.106 2.152 1.329.941-.09-4.562-4.384-4.341-5.225-11.28-11.248-10.741-7.311-23.245-21.142l.708.279c-8.628-8.094-13.196-13.174-21.107-20.748l-5.551-6.641c1.447 1.279 5.52 4.538 4.071 2.564 2.414 3.517 5.754 6.471 8.653 9.961.469.184-.728-1.221-1.207-1.876 1.923 1.933 2.644 3.147 5.286 5.599-.009-.236-2.651-3.151-.49-1.125l3.125 3.804c4.796 4.474 3.094 1.471 8.383 7.071-1.315-.71-3.82-2.34-6-4.375 2.422 2.553-3.499-3.134-1.41-.683 4.032 3.136 5.407 5.221 10.453 9.705-.622-.497-.857-.557-2.058-1.702l6.725 7.104c-1.448-1.973 6 5.424 5.746 4.391-7.207-7.53-5.277-5.129-13.454-13.747 2.465 2.289 5.927 4.957 7.728 6.029.058.088.167.222.418.487 1.668.897.464-.514 1.163-1.163-4.313-3.354-6.48-6.311-11.277-10.556-1.219-.481 2.152 3.094 4.495 5.245l-4.228-3.738.954.614-9.986-10.232c1.936 1.896 2.8 2.332 3.961 3.17-1.29-1.318-2.485-2.708-3.751-4.188-.063.641-.494.707-1.76-.571-6.42-6.589-9.72-10.521-11.718-13.323l-.782-.732c.729 1.451-5.268-3.97-7.652-5.617.473-.272-3.128-3.575-4.813-5.641-1.426-.569-.686 1.353 1.247 3.985 4.79 4.007 2.859 2.069 5.493 3.592l7.425 6.685-1.919-1.235c3.371 3.672 7.204 6.604 6.501 6.789-2.157-1.564-5.049-4.816-7.192-6.365l2.167 2.492c-4.546-3.673-1.686-2.527-6.966-7.198 1.453 2.208-.478-.424-2.862-2.302 1.448 1.974 8.868 8.653 6.731 7.8-2.868-2.307-7.953-9.458-12.014-12.242l.24.095c-4.967-5.134-7.109-6.542-9.23-8.202-1.941-2.356-5.201-5.031-7.553-7.337l.244-.13-3.364-3.208c1.905 1.225 3.842 3.86 6.714 6.634l-.004-.698c2.842 3.666 5.639 5.21 8.461 7.435-3.973-3.372-10.286-10.456-11.827-10.641l-1.922-2.622-1.213-.961c-1.43-1.956.711-.64 4.072 2.564.482.658.724.986.479.886 1.679 1.369 3.347 2.498 6.954 6.266l-2.151-1.784c4.566 4.615 8.873 8.655 10.786 9.886-6.483-6.772-12.969-13.319-19.208-19.526-2.62-1.052-5.237-2.789-6.901-2.996-4.31-4.041-10.079-9.609-13.438-13.502l.477.189a65.657 65.657 0 00-4.808-4.712c-1.678-2.061 1.665.895.466-.512l-6.225-5.736c.699.039 5.732 5.069 8.146 7.436-.479-.423-1.444-1.278-1.196-.941 2.645 2.915 8.385 7.532 9.123 9.225 1.437 1.271-3.104-2.399 1.457 2.211 2.891 3.25 4.318 3.821 4.782 3.999.237-.137-4.563-5.074-2.648-3.61-2.413-2.366-3.605-3.077-6.481-6.313 2.391 2.346 5.987 5.184 6.958 6.735 5.031 4.335 5.236 2.786 3.077.529.25.801-8.882-8.204-3.099-1.705-3.112-2.405-8.154-7.441-11.983-10.83l.234.094-4.568-4.392c.729.532 2.167 1.804 2.397 1.662l-6.706-5.704c3.829 3.156-1.932-2.398-3.373-4.137-.951-.379-3.583-2.593-1.421-.104 2.407 2.822 1.677 1.367 4.076 3.723l-3.817-2.915-.245-.333-2.396-1.657c-4.559-4.611 2.861 1.146-3.375-4.369l.262 1.268c-6.728-6.876-14.897-16.177-19.936-20.751 1.612 1.04 2.656 1.164 1.106-.932 1.986 2.159 6.168 6.306 9.188 9.231.483.66-4.308-3.119-7.429-6.457.741 2.388 8.619 7.625 8.165 8.839 7.937 8.52 6.941 5.334 13.435 12.808.469-.276 2.167 1.803 2.863 1.841-1.459-2.675-9.356-9.314-13.676-14.06.471.417 1.419 1.254 1.665 1.358-3.13-3.349-4.552-4.604-6.953-6.729l.241.329c-4.318-3.59-2.168-2.725-4.332-5.216-.957-.847-4.085-4.19-3.838-3.396l-3.861-4.568-.213.619c-2.401-2.353-2.646-3.148-5.055-5.049l-.472.272 5.774 6.033c-3.114-2.87-1.19-.478-4.556-3.688 2.04 1.633 1.442.932.332-.266-.555-.6-1.238-1.322-1.783-1.939-.272-.31-.511-.592-.681-.818a3.75 3.75 0 01-.206-.302 1.013 1.013 0 01-.157-.274c-.569-.512-1.139-1.024-1.674-1.56l-1.116-1.179-.563-.597c-.188-.2-.308-.43-.466-.646l.413.555.509.507-.44-.606-.313-.584c-.197-.372-.417-.689-.529-1.04l-.402-.959c-.114-.313-.186-.632-.285-.949-.226-.631-.286-1.323-.377-2.147.013-.413.037-.862.081-1.36.07-.493.221-1.022.359-1.618l-.425 1.492c-.079.498-.147.987-.207 1.471-.007.483.014.961.034 1.437.04.473.152.93.227 1.396.223.91.523 1.819 1.031 2.658.201.444.547.841.88 1.258l1.042 1.28 1.936 1.873c.436.4.86.772 1.346 1.188l-1.125-.964c-.144-.117-.599-.546-.971-.892l-1.245-1.166c-.873-1.002-1.917-2.05-2.554-3.274-.601-1.248-1.057-2.594-1.177-3.897-.304-2.626.547-4.778.932-5.698.541-1.362 1.663-2.387 2.567-3.423.887-.965 2.006-2.196 2.408-2.497 1.116-1.003 2.237-1.961 3.449-3.13-2.21 2.359-1.528 2.242-1.471 2.645.028.202-.1.534-.824 1.371l-2.071 2.297-1.834 1.981c-.298.392-.536.842-.833 1.299-.209.5-.466 1.021-.645 1.603-.021-.37.582-1.853 1.017-2.312-.876.761-1.91 3.005-1.65 5.632.085 1.308.587 2.623 1.203 3.795.663 1.145 1.681 2.078 2.479 2.938l1.82 1.61c-.246-.492.343-.066.426-.116.051-.015.11-.015-.105-.287-.228-.285-.679-.792-1.478-1.653l-1.091-1.37c.324.473.197.456-.253.061-.111-.1-.25-.219-.392-.367l-.411-.54c-.144-.205-.326-.419-.471-.676-.128-.269-.267-.556-.412-.858-.511-1.231-.902-2.9-.609-4.639.286-1.737 1.046-3.437 2.418-4.666l-.048.647c-.033.31-.007.623.005.628-.034-.016.393-.459 1.026-1.125l2.28-2.394 2.473-2.403-.429.484c2.211-1.456 5.129-5.274 8.708-8.41 2.214-2.633 11.679-11.765 7.065-8.378 3.38-2.646 5.558-5.758 8.767-9.125l-4.338 3.859c4.426-5.265 3.301-3.598 6.512-8.144.552-.231 1.548-.964.93-.008 6.54-6.479 16.002-15.61 19.341-19.909 4.614-4.563 6.025-4.592 12.192-11.302 1.273-1.439-1.605.509 2.826-3.585.331-.243-3.669 4.539 1.031-.255 2.93-3.831 8.19-7.691 12.197-12.48 2.484-2.159 6.452-6.25 5.97-5.054-3.759 3.597-8.89 8.876-9.512 9.841.292-.723-2.825 2.408-.28-.469-5.83 5.29-3.388 3.83-8.56 8.633-.201.487 2.959-2.169 3.901-3.367.51.464-9.599 10.071-4.581 6.222 5.372-5.288 5.938-7.887 11.07-11.993-1.555 2.148-4.702 4.793-6.542 7.657l3.992-3.599 2.403-3.107-.092.236c7.15-6.258 5.699-6.704 11.453-12.946-3.813 3.137-.042-1.649-2.863.758 3.949-4.074 6.959-6.954 7.474-6.494-7.106 7.902.09.942-6.361 8.365 1.313-.964-.938 2.365 3.25-1.715 4.31-5.006-1.799.987 2.686-3.819.318-.231.647-.472.556-.239 1.883-2.39 2.584-2.401 4.89-5.267l-.515.711c3.484-2.892 3.152-3.823 6.219-6.245-1.459.736 1.545-2.14 3.021-4.067-2.918 2.645-4.943 3.632-10.403 9.149-.376.949.183.707-1.933 3.1l3.533-3.602c-.723.816-1.235 1.477-1.884 2.24l-3.575 3.278c4.14-4.549 1.842-2.863 3.391-5.006 4.101-3.851 3.202-3.359 5.795-5.767.168.671 8.383-6.949 13.231-11.256l-2.141 2.107c-3.06 3.59 2.638-1.938 2.876-1.946l2.213-2.633c-.427.485-.96 1.214.133.24 3.203-3.358 2.596-3.584 5.792-6.938.477-.015-1.941 3.105.217 1.19.904-.5 3.677-2.201 7.824-6.757.221-.396 1.299-1.574 2.568-2.92-.169.194-.389.432-.453.53l3.142-2.638c-2.068 2.857-5.166 4.794-7.246 7.666l.165.585c-1.925 1.928-4.379 4.706-5.387 6.103 3-2.873 3.52-3.59 6.727-6.952.696-.223-1.441 2.266-1.749 2.625l.276-.704c-4.227 3.606-5.496 6.215-10.441 11.021-.751.721-.33.244-.237.009-3.584 4.31-7.954 7.685-11.312 12l1.053-1.448-11.938 13.708.105.187c.654-.479-1.267 1.432-2.354 2.4l.003-.007-6.564 7.496a29.897 29.897 0 002.598-2.225c.629-.972 5.459-5.521 4.427-5.267 2.401-1.932 5.556-5.76 7.294-7.204-3.149 2.649 1.652-2.387 1.945-3.109 1.221-.729 4.278-4.315 4.229-3.605.658-.486-1.643 1.205-2.678 2.636-2.729 3.345 5.831-5.289 2.34-1.213 4.58-5.043 11.021-11.283 15.679-16.55l-2.914 2.643c2.255-2.158 7.402-7.453 7.952-7.684-1.601 1.678-3.521 3.59-5.552 5.753.271.475 5.038-5.042 5.501-5.045l5.474-6.708-2.688 2.647c1.454-1.907 7.305-7.211 11.491-11.293-1.861 2.882-6.224 6.25-10.368 10.805-2.966 3.354 2.443-1.458-.425 1.654.895-.657 2.832-2.622 3.666-3.712l1.271-1.087c-2.203 3.132-8.287 9.009-11.869 13.389.3-.399.552-.756.608-.92-3.245 2.885-6.351 6.006-9.216 9.117 1.727-1.435 2.253-2.159 3.103-3.117.227.002-2.544 2.873-3.485 4.067 2.916-2.645.792-.245 2.627-1.927-1.7 1.921-3.199 3.355-5.454 5.513-1.319.969.705-1.188.242-1.184-2.134 2.41-3.723 2.899-6.783 6.49 4.52-4.327-.666 1.665-2.035 3.343l.757-.725c-1.133 1.671-2.313 2.873-3.528 3.596 1.7-1.921 3.528-3.596 2.739-3.355-1.184 1.208-2.364 2.411-3.636 3.848l1.034-1.429-5.886 6c-.699 1.183-1.93 3.095-2.397 4.275-1.644 1.207-3.447 3.374-4.715 4.811l.528-.73c-2.828 2.415-8.488 8.42-8.766 9.126-2.064 1.682 11.877-14.6-1.163-1.163-5.03 5.034-2.453 3.817-5.089 6.925 0 0 .092-.232-.238.008-2.252 2.153-2.213 2.634-3.914 4.554 1.424-1.217 3.343-3.126 3.86-3.841-.377.948-4.612 4.562-6.075 6.474 1.75-2.63-4.425 4.09-2.951 2.164-4.664 4.097-8.999 9.128-10.975 11.753-3.524 2.42-5.139 5.286-10.218 9.854.758-.725 2.021-2.153 3.117-3.13 2.4-3.1-5.182 4.814-1.27.262-.85.96.122.25.995-.733 1.584-1.663 2.959-3.346 2.392-3.097l-4.241 3.622 1.288-1.457-6.395 5.538c-.092.232.556-.239.886-.483-7.108 6.731-14.781 14.882-20.901 20.888-.075 1.063-3.7 4.9-7.843 9.159l-3.157 3.237-1.563 1.609-.59.618-.335.369c-.437.477-.852.934-.937 1.472-.108.521.027 1.01.265 1.329-.348-.33-.657-.674-.937-.863-.287-.19-.574-.219-.776.115-.028-.445-.042-1.189.409-1.924.219-.367.533-.729.868-1.129.174-.201.345-.39.554-.604.297-.304.606-.606.926-.906.555-.237 3.794-3.117 2.006-.966 6.734-6.959-1.36.493.293-1.895l-1.878 1.949-1.673 1.782c-.71.846-1.483 1.517-1.821 2.386a3.092 3.092 0 00.162 2.538c.377.756 1.083 1.21 1.647 1.664l.736.573 1.156 1.005 2.293 2.04.004.238 3.836 3.395c-2.889-3.021-2.183-3.435 1.429.57l-.491-.436c1.937 2.407 6.733 6.649 10.089 10.079l2.625 1.977c3.361 3.436 2.905 4.185 3.648 5.65 5.284 5.368 8.854 7.95 12.931 11.439 1.447 1.974 9.363 10.014 4.817 6.106 5.036 4.572 5.476 2.193 12.935 11.215l-2.392-1.885c7.931 7.825 19.671 18.556 23.034 22.453-3.818-1.995 8.913 10.768 9.42 13.062-.186-.595 2.842 2.298 3.382 2.62.543.753 1.522 1.935 2.852 2.896-2.893-3.252 3.087 1.232-3.147-4.281 3.585 2.36 7.893 5.711 14.374 12.253l-.471.275-5.039-5.266c.246.795-2.385-1.877-3.6-2.837 9.375 9.793-2.127-.382 7.719 9.367 1.188.704.475.19 3.117 2.642-1.21-1.185-1.682-1.144.243.791l2.151 1.556c2.8 4.043-6.068-5.259-3.585-1.903-4.076-3.49-10.785-9.886-10.04-8.189 6.005 6.351 6.449 4.667 12.693 11.343l.485.891c2.41 2.134 3.105 2.173 4.547 3.219-.003.228.488.892 1.915 2.384 4.316 3.357 6.956 5.81 11.018 8.826-9.812-9.027-7.688-8.417-17.761-17.79 1.679 1.369 8.636 8.101 9.572 8.006l-.465.283c3.355 2.967 6.707 5.935 10.555 10.027l-2.634-2.213c5.521 5.002 8.182 9.313 12.954 12.845-1.433-1.499-2.635-2.679-3.597-3.527 2.875 2.542 6.236 5.979 9.117 8.985l6.706 5.475c-.238.132 3.61 4.003 1.453 2.436 4.102 4.67 6.725 6.181 9.351 8.622 4.095 4.888-4.066-3.713-5.021-3.638 6.014 6.359 12.728 12.762 16.555 15.917-1.187-1.337-1.735-2.015-1.581-2.041.07.305 2.594 2.768 3.979 4.161l1.198.712.05.058.012.015-.128.128h-.002l-.007.005-.021.02a.477.477 0 00-.052.068c-.002.005.009-.02.001-.006-.021.042.008-.025-.007.013a.425.425 0 01-.074.146c-.011.01-.059.076-.077.071a.11.11 0 00-.044.009l-.035.014c-.029-.015.007.057-.086-.029.045.048.057.056.056.049l.015.002.023.01c.018.001.008.048.035.032.051-.036.049.032.099-.024.056.022.119-.125.14-.125.001-.03.001-.047.006-.049-.012 0 .04.002-.021.009a.498.498 0 00-.278.145l-.054.063c-.006.011-.061.078.006.017l.496-.406.251-.197.002-.001-.364.329-.001-.001-.001-.002-.001-.002-.001-.005v-.005c.004-.004.02.003.051.015.001-.01.076.021.134.018.04.036-.003.035.038.083.015.037-.029.04-.008.098l.002.01.001.005.001.002c.152-.139-.342.309.343-.31l-.004.003-.012.011-.1.088-.198.176-.402.351-.045.039.013-.024.031-.045a.378.378 0 01.256-.14.427.427 0 01-.398-.011c-.029-.01-.069-.008-.078-.055a.066.066 0 00-.047-.022c.007.021-.054-.041-.114-.102l-.167-.168-1.264-1.26c-.794-.78-1.481-1.433-2.02-1.88a109.917 109.917 0 013.227 3.162l.268.276c.038.029.038.016.054.03.025.013.027.059.046.081.028.004.047.02.062.05.007.048.044.032.064.051.025.008.039.064.069.067.057-.012.111.096.175.075a.32.32 0 01.103.052.171.171 0 01.098-.001c.158.018-.054.056-.054.194l-.006.051c-.003.021.07-.044.102-.062l.249-.174.251-.175.127-.089.063-.045.032-.022.008-.006-.296.268.001-.001.003-.004a.34.34 0 01.106-.086c.054-.019.101-.046.115-.093.188-.118.231-.366.272-.632.034-.12-.046-.326-.038-.382.002.021.016.039.039.049a.119.119 0 00.044.01h.027c.012.001-.04-.054-.058-.078l-.312-.383-.16-.195-.08-.1-.021-.024.244.271-.006-.006-.011-.012-.046-.045a169.957 169.957 0 00-3.382-3.262c-.007-.239 1.913 1.23-.012-.701-4.557-4.378-1.666-.668-3.331-1.794 1.795 1.645 3.056 2.903 4.079 4.039.511.568.963 1.105 1.394 1.645l.633.813.001.002c.281.312-.383-.423-.313-.347l.002.004.004.007.009.014.017.027.034.056.067.11.134.224c.079.14.204.323.247.433.048.045-.246-.195-.494-.393l-.19-.151-.088-.07-.021-.017-.005-.004-.003-.002-.001-.001-.001-.001.34.376-.011-.007-.041-.026-.174-.112c-.037-.241-2.191-2.407-2.729-3.142l-.957-.155c.7-.188-2.417-3.98-5.299-6.53 2.423 3.066 1.698 2.308 1.939 3.56-4.298-3.34-3.839-4.779-8.626-8.553.463.179 4.307 3.81 1.187.471-2.653-2.692-2.643-1.99-4.546-3.673 2.389 1.649 2.145.856 4.771 2.606 4.796 4.702 1.911 1.921 6.714 6.401l-3.616-4.241c4.083 3.963 3.349 2.503 3.821 2.692-6.495-7.247-5.739-4.617-10.063-9.135-2.385-1.878 4.088 4.194.488 1.126-4.08-4.188-1.184-.702-5.984-5.182l.946.607c-1.199-1.639-2.872-2.771-4.551-4.374-1.917-1.693.76 3.328-6.687-4.069.466.261.665.329.708.286l10.345 4.136a1446.366 1446.366 0 01-24.607-25.182c-1.444-2.657 6.716 5.716 6.457 4.909l3.848 4.097c-.48.034-8.401-8.243-5.27-4.201 7.199 6.829 10.086 10.308 17.271 16.432-1.459-2.676-8.872-8.656-12.73-13.455 1.778 1.857 3.379 3.325 4.956 4.728l-12.783-13.294-1.187-.893c3.049 3.186 5.153 5.394 5.409 5.693-4.079-4.186-7.901-7.334-8.621-7.164l.719.75-1.633-1.354a664.295 664.295 0 00-2.807-2.989zm36.934-269.03c-.209.294-.357.542-.441.75.087-.217-.124-.089.441-.75zm-1.511 319.1l8.14 8.389 4.021 4.15.997 1.025c.138.157.393.373.63.57.245.188.461.419.738.561 1.052.677 2.29.979 3.515 1.01-1.103-.106-2.168-.388-3.025-.971-.454-.246-.82-.593-1.167-.938-.394-.356-.547-.62-.815-.922l-2.621-3.208c-1.539-1.91-2.612-3.313-2.915-3.891-.304-.577.162-.33 1.7 1.061.769.695 1.806 1.676 3.148 2.982.668.656 1.415 1.391 2.248 2.207.209.225.416.376.626.547l.318.259.374.192.38.202.423.123c.144.039.285.094.434.124l.46.042c.005.063 1.29-.119 1.274-.164-.628.071-1.396.108-2.168-.188-.402-.091-.76-.347-1.138-.564l-.518-.435c-.181-.152-.382-.379-.576-.568a287.92 287.92 0 00-5.054-4.983 628.596 628.596 0 00-7.656-5.94l-3.765-2.849c-.984-.73-1.608-1.174-1.609-1.125.723 1.216 2.405 2.36 4.092 4.197l-.491-.895zm-2.446-5.391c-3.025-3.222-2.51-2.315-3.169-2.625l3.349 3.216c-.371-.459-.515-.727-.18-.591zm-3.157-2.263c.347.355.638.663.771.844l-.771-.844zm-2.327-16.302l.331.31-2.208-2.289c.271.327.82.919 1.877 1.979zm5.91 6.77l1.063.421-2.071-2.146c.091.383.212.757 1.008 1.725zm19.323 21.435c.417.225 1.001.661 1.651 1.187l1.016.84.261.22.131.11.065.056.002.002c-.044-.05.103.112-.099-.11l.004.004.007.008.015.016.03.03.474.49c.197.182.227.279.296.382.065.108.155.191.225.312.099.278.281.523.336.768.065.241.157.451.222.615.042.164.101.28.176.326.062.171.145-.008.213-.402l-.017-.728c-.034-.276-.135-.572-.203-.888-.069-.157-.154-.302-.228-.457-.082-.153-.126-.311-.279-.473l-.392-.489-.099-.123a6.953 6.953 0 01-.075-.077l-.224-.228-1.85-1.89c-.109.02-.425-.175-.908-.542 1.211 1.322 1.947 2.279 1.16 2.039-2.661-3.854-3.343-2.494-6.711-6.168-1.434-.808 3.608 4.229 4.801 5.17zM204.633 176.816c.138-.061.583-.305 1.189-.664l-2.261 2.701c-4.521 4.328-8.705 7.233-12.138 11.766-2.002 1.726-3.292 2.432-4.486 3.145.93-.895 1.807-1.725 2.555-2.399 10.361-11.972 6.671-4.974 15.141-14.549zm-51.656 50.09c.429-.484.52-.72.52-.72-9.07 10.703-16.974 19.08-22.335 24.378 1.357-.709 6.389-5.24 8.793-7.376l-1.643 2.381-1.546.966-3.158 3.828c1.225-.729 3.994-3.601 6.07-5.296.093-.234 5.701-6.702 7.161-8.617l-5.079 4.569c1.406-1.2 7.72-7.684 10.163-10.316-.135-.235-4.793 3.853-4.942 4.805-.794.246 4.244-4.798.762-1.904 3.485-4.071 9.74-9.837 12.665-12.49l.933-.012c3.239-2.88 1.512-2.623 5.414-5.991-4.379 4.559 1.261-.25-2.259 3.339 1.309-.961.51.464 4.038-3.132 2.355-3.576 4.137-3.372 6.402-6.714 2.063-1.682-1.648 2.383 2.119-1.221 3.906-4.547 3.432-4.533 3.25-5.24-4.077 3.828-3.863 5.019-7.204 8.143l5.669-7.19c-1.292 1.077-2.181 1.943-2.886 2.709 1.248-1.336 2.233-2.546 3.017-3.641l1.259-1.71c-3.648 3.64-6.895 6.866-7.656 7.249l.287-.718c-1.488 1.093-3.436 3.351-4.248 4.478-3.239 3.287-6.198 6.846-7.19 7.28l1.042-1.436c-3.954 4.075-4.374 4.549-9.418 9.599zm75.41 134.581c-1.641-3.22-3.624-6.598-15.106-17.804l.947.838c-5.221-6.213-11.802-10.491-18.207-17.997 3.673 3.078 3.464 2.923 7.871 5.969l-3.844-3.398c1.433.574-2.401-2.816-5.038-5.493l2.856 1.834c1.448 1.741 5.529 5.929 5.524 5.691-.962-.849 4.813 6.104 8.418 9.412-.01-.703-7.449-7.861-3.624-5.168-3.11-2.636-3.121-3.338-6.245-6.219 3.117 2.643 1.185.24 3.582 2.132l-5.042-4.806c-.013-.244 7.427 6.914 3.818 2.454-2.154-1.791-7.194-7.287-7.661-7.008l-.007-.236c-3.609-3.771-2.151-1.096-6.47-5.84-.241.134.494 1.128 2.156 2.713 1.455 1.289 1.922 1.243 4.8 4.017.976 1.559-3.373-3.445-1.904-.989.729 1.22 7.673 7.249 5.052 5.736l-3.603-3.764c-.468.279-3.114-2.41-3.341-2.034-2.39-2.115-4.095-4.661-6.721-6.638-1.196-.714.023 1.403-3.588-2.599-2.421-3.526-11.293-12.183-14.654-15.387l-3.111-2.634c.015.474 5.52 5.457 3.377 3.91l-4.569-4.39.489.202c-1.453-1.517-3.125-2.88-4.562-4.152 1.664 1.126 4.785 4.463 4.532 3.433-2.026-2.18-2.202-2.645-4.212-4.505.45.395.852.72.853.612-4.089-4.426-4.546-3.677-5.74-4.617-4.787-3.774 3.845 4.783 2.897 4.637l-12.711-12.283c1.194.941 2.394 1.891 2.151 1.328-2.886-3.245.232-.371-4.09-4.656-.225.838-5.75-5.088-9.098-7.82-1.203-1.639-1.451-1.975 1.662 1.125.005-.685-4.35-4.775-5.729-6.216a14.334 14.334 0 01-.532-.454c-.407-.364-.945-.781-1.404-1.277-.23-.248-.475-.488-.623-.775-.169-.273-.353-.526-.434-.788.154.828.22 1.076-.142.717-.078-.095-.206-.219-.302-.407-.09-.19-.193-.427-.31-.712-.121-.284-.142-.64-.222-1.036a5.956 5.956 0 01.052-1.35l-.036-.24c-.3 1.04-.346 2.288.075 3.472.394 1.209 1.34 2.148 2.234 3.144l2.724 2.88 2.507 2.587c1.604 1.62 3.038 2.982 4.09 3.796l-.954-.611c4.811 5.407 11.738 10.498 13.442 13.506-.476.041.967 1.086.505 1.369l4.053 3.471-.951-.613 6.483 6.315-.239-.1 8.166 6.489c.17-.156.022-.403 1.156.49a31 31 0 012.548 2.406c.006.004.006.004.007.003l-.002.002c1.522 1.617 2.335 2.897 4.173 4.926l-5.99-5.91c-.761-.208-.542.584 2.181 3.693-1.203-1.183-1.917-1.466-.473.042.234.09 4.075 3.723 2.872 2.078 5.753 5.552 14.179 15.428 23.286 23.485-6.481-5.851 4.571 5.312-2.387-1.42 4.336 5.22 4.546 3.676 9.348 8.615.256.574-2.631-2.673-4.063-3.479 7.92 8.274 14.376 12.949 22.076 20.917l-.01.68c1.53 1.439 3.225 3.038 4.988 4.699zm15.926 15.067l4.709 4.472-.44-.461 4.808 4.252c-2.649-2.918-4.104-5.13-.032-1.411-.471-.186.494 1.128-.944-.144 2.404 2.817 7.931 8.745 6.958 6.731-5.508-4.524-.506-1.832-4.813-5.409 2.455 1.776 4.397 4.025 6.546 5.871-2.363-1.796-.158 1.128 2.83 4.387 1.443 1.276 5.044 5.036 7.44 7.158-.487-1.124 1.662.661-1.939-3.101a63.315 63.315 0 015.77 5.797c-.983-.874-2.646-2.458-2.649-2.23 1.219 1.804 3.001 3.561 3.853 4.662l2.38 2.278c-.2-.257-.361-.49-.457-.677l2.868 2.307c-3.596-3.297-1.445-1.74-1.215-1.882-.465.28 2.171 2.267 3.362 3.434l-2.169-2.956c1.437 1.041 4.089 4.658 3.832 3.621-5.28-5.594-7.438-7.616-12.472-12.416l1.689 2.302c-5.764-5.331-2.896-3.946-9.136-10.155-2.867-2.309-9.38-9.342-10.068-8.911.951.61-3.378-4.373-5.764-6.253-2.869-1.846-10.068-8.906-8.142-6.514 1.92 1.933 4.794 4.244 6.009 6.126l-3.843-3.63 2.173 2.73c-1.167-1.366-1.317-.971-1.144.022zm56.69 33.921l-.137-.151.158.162-.021-.011z"/><path d="M258.787 120.34c.947-1.201 3.625-3.838 2.83-3.591.367.237-4.7 4.793-2.83 3.591zM262.259 117.457c.115-.259-.13-.244 1.052-1.447l-3.206 3.359 2.154-1.912zM267.649 116.186c1.469-1.917 2.414-3.117 5.092-5.753 1.733-.263-4.145 4.555-4.663 6.445 4.939-4.801 5.792-6.938 9.735-11.006-2.291 1.678-10.576 9.609-10.164 10.314zM266.414 119.278l2.543-2.874-.31.224-2.545 2.876zM201.367 171.555c-.474.014-1.936 1.928-2.785 2.889.751-.722 1.842-1.691 2.785-2.889zM234.784 168.781l20.439-20.882-20.439 20.882zM134.31 241.615c5.331-5.764 7.399-8.624 12.951-14.377-7.896 6.97-9.094 10.54-15.809 16.306l2.858-1.929zM134.434 237.827c1.352-.487-3.773 4.787-2.651 4.299 3.633-3.844 1.329-2.153 4.759-5.509l-2.108 1.21zM166.724 219.839l-1.457 1.908 1.272-1.437zM133.954 272.927l-.711-.516 2.645 2.919zM132.531 271.897l.712.514-.712-.514zM165.491 222.929l2.593-2.408 1.037-1.435zM141.103 242.675l2.098-2.375c-.417.47-3.654 3.352-2.098 2.375zM150.758 290.098l2.887 2.555-.235-.32-2.878-2.547zM132.516 258.354c-.141-.365.111-.207.428.063l.488.44.658.615c.187.166.277.229.203.104a3.918 3.918 0 00-.245-.333c-.106-.143-.376-.454-.428-.554l-.466-.415c-.892-.75-.666-.225-.638.08zM162.412 292.76c.367.367.765.742 1.175 1.078l-1.175-1.078zM162.412 292.76c-1.185-1.185-2.243-2.497-3.152-3.214 1.327 1.629 1.922 2.11 3.152 3.214zM176.067 306.26l-1.051-1.099c1.262.934.717.438-.395-.41-1.15-1.128-1.191-.958-1.398-1.021l-.83-.571 1.054.813c1.761 1.767 2.854 2.828 2.62 2.288zM220.898 362.302c-3.845-4.093-4.812-5.179-4.337-5.222-3.685-3.85-3.545-2.82-5.92-4.989 4.312 4.212 5.064 5.203 10.257 10.211zM210.64 352.091l-1.508-1.467a36.95 36.95 0 001.508 1.467zM163.02 287.569l2.862 2.071-.96-.85zM226.658 368.321c-.72-.753-1.911-1.921-2.402-2.589-.471.047 3.12 3.339 2.402 2.589zM216.414 347.953c-.245-.561-2.878-3.005-3.852-4.1 1.45 1.516 2.182 3.2 3.852 4.1zM239.108 378.641c-.719-.753-1.677-2.058-.973-1.782-1.196-.942-3.099-1.933.973 1.782zM223.62 355.253l-.479-.655-2.881-2.55zM217.746 341.753c-3.362-2.746 4.102 5.589-1.419.589 6.463 7.108-.084-.957 4.872 4.1-2.828-3.037-3.875-4.863-3.453-4.689z"/><path d="M221.198 346.441c.41.441.862.912 1.362 1.414l-1.362-1.414zM262.236 391.378a23.532 23.532 0 00-1.131-.922c.375.323.74.625 1.131.922zM237.439 362.173l-5.041-4.115c3.366 2.75 11.041 10.462 11.021 9.521-2.397-2.584-5.517-5.46-6.947-6.492l.967 1.086zM281.635 423.072l-2.16-1.796 2.416 2.523c-.639-.776.979.166-.256-.727zM282.359 424.287l-.468-.487c.094.117.241.272.468.487zM253.354 382.942c-1.446-1.512-2.642-2.683-4.073-3.949.472.646 4.076 4.413 4.073 3.949zM296.234 436.33l-3.344-3.186 3.596 3.529zM315.14 421.469l-.477-.65-2.872-2.542.486.659zM299.823 423.36c-2.164-2.262-4.307-3.577-3.814-2.91l4.31 4.272c-.729-1.452-1.201-1.18-3.598-3.759l3.102 2.397zM201.392 309.073c1.201.717 5.754 5.551 5.771 6.026-.731-.53-3.371-2.98-1.918-1.235l4.307 3.12c4.57 5.31-4.535-2.975-7.184-5.204 4.956 5.108 6.837 6.21 12.188 11.565a37.197 37.197 0 01-3.082-3.739c.236-.6 5.039 4.573 8.637 8.105-2.088-2.451-.622-1.291 1.196.198.311.285.532.459.701.571l.62.503-.428-.427c.077-.017.04-.168-.191-.554-3.114-2.87-5.052-5.508-6.974-7.439 1.224 2.583-6.716-6.402-9.348-8.615l-2.863-2.729-1.047-1.045c-.136-.285.255-.081 1.985 1.38-1.465-1.197-5.857-5.684-5.666-5.055l-10.141-10.121a11.393 11.393 0 01-.753-.976c-.394-.309-.488-.332-.476-.251-12.412-12.385-24.824-24.769-37.208-37.153l.146-.178c-.087.057-.19.115-.306.178.03.169.069.4.252.691-.561-.109-.465.027-.229.297l.084.098c.04.045.006.017.21.228.298.313.577.611.795.862.437.502.636.813.282.673-.417-.34-.866-.736-1.323-1.162-.303-.287-.272-.246-.352-.32l-.177-.173c-.227-.238-.4-.487-.473-.664-.235-.021-.32.099-.37.263-.054.159-.072.365-.29.405a6.3 6.3 0 00.617.708c.056.052.81.771 1.26 1.165 1.004.892 1.901 1.592 2.798 2.284 1.793 1.385 3.585 2.739 6.228 5.539-.474.043-2.382-1.414 1.215 2.113l-.961-.85c5.993 5.415 3.86 5.028 8.159 7.911l-.467.278c2.869 2.307 7.905 7.339 10.793 10.124l-.241-.097c8.385 7.531 4.558 4.377 13.673 13.135l-4.548-3.678c2.903 3.262 4.071 3.484 6.236 5.746-.23-.087.01.699-2.148-1.323l11.507 10.181c2.868 2.309-.252-.797-.496-1.359zM214.555 323.345a51.366 51.366 0 001.982 2.01l-1.982-2.01z"/><path d="M149.977 255.502l-.313.32a.865.865 0 00.313-.32zM230.912 338.074c-1.688-2.072 1.677 1.139 2.148 1.323l-6.741-6.728c-.113.174-.941-.332-.937-.065l5.53 5.47z"/><path d="M224.641 330.449c-.329-.128-1.13-.751-2.014-1.465l3.692 3.686c.085-.131-.23-.643-1.678-2.221zM217.688 338.828l-1.205-1.18-1.914-1.692zM199.675 319.551c1.206 1.642 4.073 4.178 5.032 5.026-3.121-3.107-1.689-1.84-5.032-5.026zM201.188 325.732l-3.124-2.878.237.323zM170.567 231.977l1.442-1.491a46.427 46.427 0 00-1.442 1.491z"/><path d="M147.847 255.408c1.032-.718 1.06-.569.958-.313-.118.272-.422.709-.392.905.287.136.499.156.671.062a.577.577 0 01-.088-.062 4.26 4.26 0 01.27-.598l.152.135.327-.374 2.103-2.15c-1.221.729-1.968 1.446-2.015.975 6.443-6.241 2.306-1.693 7.285-6.02l7.042-7.136-.496.651c.591-.603.823-.898.985-1.146l23.729-24.051c4.141-4.551-2.869 1.939-.043-1.647-5.037 5.039-12.797 12.25-12.71 13.193.098-.24.289-.716-.793.245l-2.489 3.337 2.913-2.643c-2.507 3.352-12.062 12.719-14.035 14.167 5.236-5.524 2.027-3.333 9.799-10.552-.467.206-2.069 1.349-.454-.411-4.316 4.466-8.5 8.608-12.688 12.826a571.372 571.372 0 00-6.301 6.433l-1.587 1.662-.797.842-.385.41-.118.145c-.311.384-.599.761-.843 1.115zM233.014 169.744l-.023.116c.134-.183.167-.253.023-.116zM230.003 172.628l-3.775 4.786 6.633-6.714.13-.839c-.5.68-2.66 3.199-3.706 3.968l.718-1.201zM221.563 182.689c3.296-3.597 2.692-3.827.622-2.137 2.971-3.358 2.118-1.221 3.857-3.841-.372-.229-4.096 3.848-4.938 4.8l.459 1.178zM195.914 207.899l.797-1.142-2.434 2.341zM196.711 206.757l2.417-2.323c-.292.035-.58.072-1.054.371l-1.363 1.952zM205.467 198.334a211.486 211.486 0 003.53-3.398l-3.53 3.398zM202.65 200.938l.135-.026 2.682-2.578-2.817 2.604z"/><path d="M199.127 204.433c.677-.093 1.435-.237 4.781-3.745l-1.124.224-3.657 3.521zM179.802 303.466l-2.875-2.545.241.332 2.875 2.543zM164.431 287.559a54.538 54.538 0 00-1.8-1.479c.737.674 1.347 1.186 1.8 1.479z"/><path d="M150.809 277.929c-2.894-3.482 4.787 4.01-.986-2.025-.247-.793 2.874 1.621 5.517 4.537-.479.037-2.874-2.544-1.427-.572 2.144 1.549 2.643 2.454 2.388 1.423 3.348 2.863 3.97 2.934 6.331 4.789-3.926-3.584-11.411-11.866-16.674-16.133-3.094-2.16-2.137.069-2.822.733.236.554 6.97 7.438 7.673 7.248zM155.153 283.619c1.442 1.508 1.92 1.933 2.881 2.781-.014-.474-1.679-1.599-2.881-2.781zM150.441 243.243c.186-.377 2.736-3.166 1.997-2.758l-3.926 4.168c.965-.934 1.417-1.152 1.929-1.41zM146.788 246.48l1.723-1.827c-.452.436-.988.997-1.723 1.827zM150.692 243.11l-.251.133c-.037.077-.006.087.251-.133zM215.455 188.681c.128.242 1.821-1.672 2.671-2.632-.751.721-1.845 1.693-2.671 2.632zM282.616 120.064l1.74-1.446c-.651.476-.983.721-1.74 1.446zM302.116 90.46c.011-.083.098-.23.229-.417-.136.181-.216.322-.229.417zM302.345 90.042c.935-1.242 4.535-4.364 5.509-5.806l-.082.225 1.056-1.194.387-.438c.059-.068.131-.143.17-.196a5.11 5.11 0 01.07-.121l.153-.235c-.112.217-.956 1.039-1.644 1.737l-2.26 2.301c-1.499 1.545-2.861 3.005-3.359 3.727z"/></g></svg>