<svg aria-hidden="true" style="position:absolute;width:0;height:0" xmlns="http://www.w3.org/2000/svg" overflow="hidden"><defs><symbol id="menu" viewBox="0 0 32 32"><path d="M30.667 17.306H1.334a1.333 1.333 0 010-2.666h29.333a1.333 1.333 0 010 2.666zM30.667 7.083H1.334a1.333 1.333 0 010-2.666h29.333a1.333 1.333 0 010 2.666zM30.667 27.528H1.334a1.333 1.333 0 010-2.666h29.333a1.333 1.333 0 010 2.666z"/></symbol><symbol id="close" viewBox="0 0 32 32"><path d="M1.653 32A1.646 1.646 0 01.49 29.189L29.197.482a1.646 1.646 0 112.328 2.329L2.819 31.517c-.298.298-.71.483-1.165.483z"/><path d="M30.362 32h-.004c-.453 0-.863-.185-1.159-.483L.49 2.811A1.647 1.647 0 012.819.482l28.706 28.707A1.646 1.646 0 0130.362 32z"/></symbol><symbol id="icon-arrow-point-to-right" viewBox="0 0 32 32"><path d="M24.464 17.584l-13.76 13.759c-0.875 0.876-2.294 0.876-3.169 0s-0.875-2.294 0-3.169l12.175-12.175-12.175-12.174c-0.875-0.875-0.875-2.294 0-3.169s2.294-0.875 3.169 0l13.76 13.759c0.437 0.438 0.656 1.011 0.656 1.584s-0.219 1.147-0.656 1.584z"></path></symbol><symbol id="icecream" viewBox="0 0 32 32"><path d="M13.372 4.6c-3.257 0-5.906 2.586-5.906 5.765 0 1.491.575 2.879 1.616 3.953.05.051.12.083.198.083h8.183a.28.28 0 00.198-.083 5.63 5.63 0 001.616-3.953c0-3.179-2.65-5.765-5.906-5.765zm8.067-1.066C20.536 1.456 18.417 0 16 0c-2.455 0-4.565 1.439-5.454 3.541a.267.267 0 00.338.354 7.145 7.145 0 015.027.017.246.246 0 00.178-.001l-.002.001a7.182 7.182 0 015.016-.022c.219.08.43-.142.337-.356z"/><path d="M18.9 4.6c-.215 0-.508.011-.793.034a.264.264 0 00-.15.467c1.529 1.269 2.502 3.156 2.502 5.264 0 1.29-.378 2.55-1.063 3.634-.11.174.023.401.229.401h3.095a.28.28 0 00.198-.083 5.63 5.63 0 001.616-3.953c0-3.179-2.377-5.765-5.634-5.765zm3.499 10.867H9.646a.267.267 0 00-.246.37l6.641 15.837a.534.534 0 00.492.327h.015a.534.534 0 00.486-.351l.001-.004 5.614-15.822a.266.266 0 00-.251-.356zM16 .011l-.013.001A6.66 6.66 0 0116 .011z"/></symbol><symbol id="ice-cream" viewBox="0 0 32 32"><path fill="var(--color1, #ff3c62)" d="M32 16c0 8.836-7.163 16-16 16S0 24.837 0 16C0 7.164 7.163 0 16 0s16 7.163 16 16z"/><path fill="var(--color2, #e7001f)" d="M32 16c0-.969-.086-1.917-.251-2.838l-6.454-6.457c-2.593-2.593-6.73-2.66-9.24-.149a6.71 6.71 0 00-.144.149l-.003.004a2.266 2.266 0 00-2.436 3.768l.003.003c-1.67 3.075-5.515 10.183-6.147 11.585-.84 1.865-1.434 2.925-.875 3.484l6.073 6.073c1.043.241 2.24.38 3.47.38h.005c8.837 0 16-7.163 16-16z"/><path fill="var(--color3, #ffa91f)" d="M14.247 9.057s-6.109 11.206-6.92 13.007c-.84 1.865-1.434 2.925-.875 3.484s1.619-.035 3.484-.875c1.8-.811 13.007-6.92 13.007-6.92l-8.695-8.695z"/><path fill="var(--color4, #f80)" d="M18.595 13.405L6.452 25.548c.559.559 1.619-.035 3.484-.875 1.8-.811 13.007-6.92 13.007-6.92l-4.348-4.348z"/><path fill="var(--color5, #e67500)" d="M13.819 22.132l-.001-2.723h2.723v1.808l1.227-.66V19.41h2.124c8.337-4.237 9.078-4.645 9.818-5.054l-7.556 3.827h-4.386V15.46h2.88l-1.227-1.228h-1.652V12.58l-1.227-1.227v2.88h-2.723V9.847c3.443-6.865 3.035-6.125 2.628-5.385l-3.855 7.647v2.124h-1.147l-.66 1.227h1.808v2.723H9.87v-1.014c.67-1.419.262-.662-.144.097l-1.083 2.216v2.651H7.299c-.206.456-.397.864-.558 1.227h1.902v1.902c.363-.161.771-.352 1.227-.558V23.36h2.651c3.009-1.506 3.766-1.914 4.522-2.324l-2.209 1.097H13.82zm-.001-6.674h2.724v2.723h-2.723v-2.723zm-3.95 6.674v-2.724h2.723v2.724H9.868z"/><path fill="var(--color6, #c06100)" d="M22.154 18.182h-4.386v-2.723h2.88l-1.227-1.227h-1.652l-1.227 1.227v2.723h-2.723l-1.227 1.227v2.724H9.869L8.642 23.36v1.902c.363-.161.771-.352 1.227-.558V23.36h2.651c2.997-1.5 3.754-1.908 4.51-2.319l-2.197 1.092h-1.014l-.001-2.723h2.723v1.808l1.227-.66v-1.147h2.124c8.397-4.268 9.137-4.676 9.877-5.084l-7.615 3.857z"/><path fill="var(--color7, #fff)" d="M25.292 16.093c.052-.048.103-.097.153-.147 2.51-2.51 2.443-6.647-.149-9.24s-6.73-2.66-9.24-.149a6.71 6.71 0 00-.144.149l-.003.004a2.266 2.266 0 10-.386 4.244 2.264 2.264 0 002.763 2.763 2.264 2.264 0 002.763 2.763 2.264 2.264 0 003.793 2.173 2.266 2.266 0 00.452-2.559z"/><path fill="var(--color8, #e1e1e3)" d="M25.292 16.093c.054-.051.104-.099.153-.148 2.51-2.51 2.443-6.647-.149-9.24l-7.011 7.011a2.264 2.264 0 002.763 2.763 2.264 2.264 0 003.793 2.173 2.264 2.264 0 00.451-2.559z"/></symbol><symbol id="icecream" viewBox="0 0 32 32"><path d="M13.372 4.6c-3.257 0-5.906 2.586-5.906 5.765 0 1.491.575 2.879 1.616 3.953.05.051.12.083.198.083h8.183a.28.28 0 00.198-.083 5.63 5.63 0 001.616-3.953c0-3.179-2.65-5.765-5.906-5.765zm8.067-1.066C20.536 1.456 18.417 0 16 0c-2.455 0-4.565 1.439-5.454 3.541a.267.267 0 00.338.354 7.145 7.145 0 015.027.017.246.246 0 00.178-.001l-.002.001a7.182 7.182 0 015.016-.022c.219.08.43-.142.337-.356z"/><path d="M18.9 4.6c-.215 0-.508.011-.793.034a.264.264 0 00-.15.467c1.529 1.269 2.502 3.156 2.502 5.264 0 1.29-.378 2.55-1.063 3.634-.11.174.023.401.229.401h3.095a.28.28 0 00.198-.083 5.63 5.63 0 001.616-3.953c0-3.179-2.377-5.765-5.634-5.765zm3.499 10.867H9.646a.267.267 0 00-.246.37l6.641 15.837a.534.534 0 00.492.327h.015a.534.534 0 00.486-.351l.001-.004 5.614-15.822a.266.266 0 00-.251-.356zM16 .011l-.013.001A6.66 6.66 0 0116 .011z"/></symbol></defs></svg>